<mxfile host="app.diagrams.net" agent="Mozilla/5.0 (Windows NT 10.0; Win64; x64) AppleWebKit/537.36 (KHTML, like Gecko) Chrome/132.0.0.0 Safari/537.36 OPR/117.0.0.0" version="26.2.5">
  <diagram name="Página-1" id="UYDimoyCh6gueT24r7PZ">
    <mxGraphModel dx="2119" dy="1303" grid="1" gridSize="10" guides="1" tooltips="1" connect="1" arrows="1" fold="1" page="1" pageScale="1" pageWidth="1169" pageHeight="827" math="0" shadow="0">
      <root>
        <mxCell id="0" />
        <mxCell id="1" parent="0" />
        <mxCell id="sK5v--wTXMD53wZldBIz-60" value="" style="rounded=0;whiteSpace=wrap;html=1;gradientColor=none;dashed=1;strokeWidth=2;movable=1;resizable=1;rotatable=1;deletable=1;editable=1;locked=0;connectable=1;" parent="1" vertex="1">
          <mxGeometry x="50" y="-666" width="990" height="571" as="geometry" />
        </mxCell>
        <mxCell id="sK5v--wTXMD53wZldBIz-61" value="" style="rounded=0;whiteSpace=wrap;html=1;dashed=1;strokeWidth=2;strokeColor=#0066CC;movable=1;resizable=1;rotatable=1;deletable=1;editable=1;locked=0;connectable=1;" parent="1" vertex="1">
          <mxGeometry x="100" y="-628.5" width="900" height="491" as="geometry" />
        </mxCell>
        <mxCell id="sK5v--wTXMD53wZldBIz-63" value="" style="rounded=0;whiteSpace=wrap;html=1;dashed=1;strokeWidth=2;strokeColor=#00FF00;flipH=1;movable=1;resizable=1;rotatable=1;deletable=1;editable=1;locked=0;connectable=1;" parent="1" vertex="1">
          <mxGeometry x="420" y="-370" width="540" height="190" as="geometry" />
        </mxCell>
        <mxCell id="j7N0jPnnDhKD8VTJG3_s-48" value="" style="rounded=1;whiteSpace=wrap;html=1;dashed=1;" vertex="1" parent="1">
          <mxGeometry x="614" y="-356" width="330" height="160" as="geometry" />
        </mxCell>
        <mxCell id="sK5v--wTXMD53wZldBIz-62" value="" style="rounded=0;whiteSpace=wrap;html=1;dashed=1;strokeWidth=2;strokeColor=#00FF00;movable=1;resizable=1;rotatable=1;deletable=1;editable=1;locked=0;connectable=1;" parent="1" vertex="1">
          <mxGeometry x="420" y="-591" width="540" height="190" as="geometry" />
        </mxCell>
        <mxCell id="j7N0jPnnDhKD8VTJG3_s-42" value="" style="rounded=1;whiteSpace=wrap;html=1;dashed=1;" vertex="1" parent="1">
          <mxGeometry x="614" y="-580" width="330" height="160" as="geometry" />
        </mxCell>
        <mxCell id="sK5v--wTXMD53wZldBIz-36" value="" style="rounded=1;whiteSpace=wrap;html=1;fillColor=#d5e8d4;strokeColor=#82b366;strokeWidth=2;" parent="1" vertex="1">
          <mxGeometry x="-563" y="-95" width="173" height="180" as="geometry" />
        </mxCell>
        <mxCell id="sK5v--wTXMD53wZldBIz-17" value="" style="rounded=0;whiteSpace=wrap;html=1;gradientColor=none;dashed=1;strokeWidth=2;movable=1;resizable=1;rotatable=1;deletable=1;editable=1;locked=0;connectable=1;" parent="1" vertex="1">
          <mxGeometry x="50" y="85" width="990" height="571" as="geometry" />
        </mxCell>
        <mxCell id="sK5v--wTXMD53wZldBIz-18" value="" style="rounded=0;whiteSpace=wrap;html=1;dashed=1;strokeWidth=2;strokeColor=#0066CC;movable=1;resizable=1;rotatable=1;deletable=1;editable=1;locked=0;connectable=1;" parent="1" vertex="1">
          <mxGeometry x="100" y="122.5" width="900" height="491" as="geometry" />
        </mxCell>
        <mxCell id="sK5v--wTXMD53wZldBIz-9" value="" style="shape=image;verticalLabelPosition=bottom;labelBackgroundColor=default;verticalAlign=top;aspect=fixed;imageAspect=0;image=data:image/png,iVBORw0KGgoAAAANSUhEUgAAADAAAAAwCAYAAABXAvmHAAAAAXNSR0IArs4c6QAAAERlWElmTU0AKgAAAAgAAYdpAAQAAAABAAAAGgAAAAAAA6ABAAMAAAABAAEAAKACAAQAAAABAAAAMKADAAQAAAABAAAAMAAAAADbN2wMAAADKElEQVRoBe1Zy2sTQRj/ZjY1bUrBFgURD0rTIghpqgftoYkHaemtoD34wGMrnkVP3rz4B4iiF4V68gEiXioUmpYGKklT1IN1owcRW1+9lCSVnRm/XduyK9lsZgaph9nD7sz3+H2P3+we9gMw1852gKiEF0KQ3nR2XBC4KECkQUBCBQcIVNBvEYA+KJdm7qlgSBfgJt/Tn3kqBIyqBAzzIUCe2Eu5M2H6MLl0Acl09rIQ/BYCfgViTey2OqYKheeVIwPDXRuV6ikrDq/eLeQ+hgX0y1NDQ+3V77VhwcUdbMheIHQCmbjrt4laKxSQmUcWBgiBUbs0+8wNkBwZicOX9beYRLd7LIjVkrIL0+Xuvsxt3FN/EoSQ+/biTN4v6+kfPM05PEbZXHlpdtCvi1rHogz+1ntnHoV72/ZN2ZtK61vtoIPJY3IlLC4NzDmBqjKAGMf3I1AAbuZRFyiAJjqn+Poa1krSm5BNP6QLwITaXPR8/lF1K0rq0B578f3KDCafxSQ+JRKtLz0doZfwGWCZ7ooFknftUvvjleIylkv+YHu+Td4C4M34dPcNCteOxOCY3546EGOUHLYo/cCBuV+Xpi/KqMUEXwBCWLmUk2qqlLE/I+FAwb9n7oYLYNxb+VWRawY80ibMQLkAPCrFMFAFOcF3q1/BD5QLwG924AipBN/yGRsbs4rLK87WXuYZ+ELIOP4vtqaAnWbCMGAY0OyAOUKaDdR2Nwxot1ATwDCg2UBtd8OAdgs1AQwDmg3UdjcMaLdQE8AwoNlAbXfDgHYLNQEMA5oN1HY3DGi3UBNA+ddiMp05rxl7271or1rbG8mFcgE4C5iUjBVu7v2wD1c30igXgNOYh42AJXUEG3JO0sczVy7ALuUuqASs57P5d1qpAIWvEFl1k0geP3mgXjIqsjf2Dw8Lx0Ursv7yDBAxjXOys7DBJnuPZq9blKzJBvXbO4x3/eLODU8mEFvyki4gRlqvMKhlcaSaZYznmPxEqW6K+E59jrfQq3WVDYTSQz4Xyx1q16qVazhWHMBtZwP8SBXOm3/iHDPf1t5x8/XcCy02I4MZg3/Qgd+d4+R0oJzwQwAAAABJRU5ErkJggg==;" parent="1" vertex="1">
          <mxGeometry x="-469" y="10" width="70" height="70" as="geometry" />
        </mxCell>
        <mxCell id="sK5v--wTXMD53wZldBIz-10" value="" style="shape=image;verticalLabelPosition=bottom;labelBackgroundColor=default;verticalAlign=top;aspect=fixed;imageAspect=0;image=data:image/png,iVBORw0KGgoAAAANSUhEUgAAADAAAAAwCAYAAABXAvmHAAAAAXNSR0IArs4c6QAAAERlWElmTU0AKgAAAAgAAYdpAAQAAAABAAAAGgAAAAAAA6ABAAMAAAABAAEAAKACAAQAAAABAAAAMKADAAQAAAABAAAAMAAAAADbN2wMAAAGfklEQVRoBe1ZW2xURRieOWe3W0AhUCwXUYts1yoi225iDZF2EUlECRKVGB+MCSgPeIlC4gMY6YtGwBjBy4N4wRAwcY2QCoEYe9kaJIDtthGCbTfaaqAFpRhATNndM35z2Dldxp2zZ3dP1QdOcvY/8////Jf55/a1hFx7/tsRoE7d+2vDM7TL5DnGjMWEkZmEUMoI6cPvAQ/1vHsi1tzv1BbXc8ueowQqq+tfYAbZSAgrzRYkjFxGPq/0dkY3Z5PLPDftabJxue0P1m1gBtvCg6eE7iU6Xaprvht9Jdo0SvUl4H2JSpQwxjYFqsNvyP3lttv2bCtQFQyHk8xoQRAMga7s7Yp+IgfE2xjRJxgjOwhjuqbRB3ti0f3Z9Ny2x33YViBJjNe4EqXaVlXwXN4bi36mMWZOH0w1sw/ny4/b9rh9ZQJ8kWGxzqOUJMbr16+Tg5Hb3sCUDYSSS4yw6tk1Yb8sd9uesK9MwJOgs7kSpsYP7e1fXRIdVPR4JHKZMtrB5YkUmyPruW1P2FcmkGLkOq6EuX9KKOeiWCgDXMcgdJys67Y9YV+ZgEaY2NeDQtkBNXU13eprdXHbnjCsTGBS6Q3HsXr/wJyeUVWzICQ6qKi/euEdmG9+VOwiHTOhU9Zz256wr0zg0KHIX5Sw7VwxaRif+hcv9olOMg2FVnmJkdgBPiUa29l9sPGCrOO2PWFfmQBXGK+XNFBK+zCys+mpS62BULhKdBSU7zjnk91NaNdA96Tu9a4XMpm6bY/btz3IuEJVqG5OMkn24fMmTI9h9GijjLUbuAShQiGcwvOx3Y7Bdjvg0T1LTrQ3mzsR75vtcdueJ5uTTN44UvLLeZLYg7XwPF4fgl2EoBfx/RU046F7Eh5fPIOR9bM0pf16kRqN6PysG/ZsK+CvrluBS8RbCHYCjwbKQwj6KKYKtkvmRRB+tAMQTTSjxaIHXR/vjL5vtqWfQLB+FYLejNzHp0XnYPUwrx7slWS1R9naeKztY8mU1VQm4A/Wb0PgT3NNKDVpuuf1u2aVRSORSMrqjY+GhgZtZ2PzMpKiLyG4e02ZRlbKTs3BMMhHXI6Av9Y0z0an9jB1twYD5Wtk36Yt06H0458bfhPH0VoEfoFp2op4rPULSSVrs7Km7hFi0MeCleVPys6WL1+ud/ae2YE7057urrbPsxqQmFcuiexDVGYsqr67J9b6KOhVM/cfFUCZ1xmM8QvZOa9Xqzvxfesxye6/2qwMhoOEGU2IehIq92JvZxuu9iPPVQlwZSCudmRpUI3c19MR/XZE1dmXHdLSifbej52tfc4sjWjdVhN+IJUy9mEqJaim1fbEWrqEVBcfnJZNvYUfRrM0SrfgTr8tU+bkmyMtkiCNADdh6E/Byw+/ErzleOdhjawum1YxPDTY/x3ajp+zA33xSVMrsJEwvmWXD53ut6agdZBV3b0wAMf386uA4Rvb4Nh6WtFtpCX7Ly31bEqfQ0vvrF3IB8d8rApMLL95NbJbgOmzM97+jZWhULSjHGlh3WyHjkBuLw8N9PecHfzpwm+n+i4ODfb18lErm17Rgz1oGQZq/uTpFUfODvbnPDeE3zMnf/4T1bsVfUPJpPE77B3kMqsC2DLTWyDbKzo5paOBtLL5Zow2cz4GuVbIrQRwuNzOmYx6rAUilOzoaCGtbD51Lz2a5s8U8pGrBCWTMYVw9UzG/XPrhFxJ411t5g7GkVYSWvkgt8q59R380EsjN3MawedV+3s2x6nElTMUihVCblUAC6RFMPOho4W07GLAyFm7mFUB/FHqIbtOKhlHWum7RVHITVRU5UfFtyqgUsjFHy2klcuvkBedwGghLRFgLlp0AtzBaCCtXIELubmTiEYx1G2k5TQWaxE77aDScxu5qfzIfFcqUBByy4G05EBV7aITAHL7AKfYM9wBjNkit127Wx7GIbRGIDecPUqkpQpY5heVQMHIzfxzvD3SkgNVtQtOoFjklgtpqQKW+QUl4AZy44HYIS05UFW7wHPA/GeGhuzfKQR2imC6O1oPYOW8jTXhY4bxquDnQ/NOoFjkJgenQlqynqqddwKpRPJx0xglkfjh/edVhp3yjx1uOo3taxeQlmd4OPmU035CL+8EikFuwqlMBdIC/x5ZlquddwKFIje7QDw+/UhaPtNOL5ss/6tEnsgtm1OZlxxOmKxMpCXrqNp5V6BQ5KYKIJOPXc1CWpn8a9//5xH4GyD+oCtFkrGJAAAAAElFTkSuQmCC;" parent="1" vertex="1">
          <mxGeometry x="-549" y="-40" width="70" height="70" as="geometry" />
        </mxCell>
        <mxCell id="sK5v--wTXMD53wZldBIz-12" value="" style="shape=image;verticalLabelPosition=bottom;labelBackgroundColor=default;verticalAlign=top;aspect=fixed;imageAspect=0;image=data:image/png,iVBORw0KGgoAAAANSUhEUgAAADAAAAAwCAYAAABXAvmHAAAAAXNSR0IArs4c6QAAAERlWElmTU0AKgAAAAgAAYdpAAQAAAABAAAAGgAAAAAAA6ABAAMAAAABAAEAAKACAAQAAAABAAAAMKADAAQAAAABAAAAMAAAAADbN2wMAAADmElEQVRoBe1Z/0sUQRR/s3dKKkQRZ6ZBiXdamOipFYieSgbXFynst34IDEr6IeiH+iGoEPqh6A+IMOgXEwkLIggiUlYNksLTAjH8AlpBmimIpl3nzuuNNnu6HnGxcrvBDixv38x7M5/3ZWZ2ZwCcYq0HmBze6z/iQf7jHjAMAkKqrLcTJbAzCOzhFveey729TRGBzSUBbt2e2QyAdcQnyTob0hTCdDCM3xdnJj69FvjcOsgVz0OykrR7sK9jXK+30YvPX3GKc3gMwIIE65aAFjXgT9oI8I2NjUrLs46TyKHAcvyMUdawlyMhtUcB1zgHjTIc0ySuqAGyhqgAzzV8sqrKulcU+Nn1PP/hXQDLab8GS0wDpOcZg04Kl7pGI9EMwhlEzEa2tJcm8axx+JgGRIWYOtLf1RjlE/+WU1hRTqNmi5GXRDoZimLg/zvWMcDqkDkRcCJg0gNOCpl0oGl1JwKmXWiyAycCJh1oWt2JgGkXmuzAiYBJB5pWdyJg2oUmO4j5S0l/bpz+panguZyiwFGTY5hSZ4B5AovGOXcrjC0ZeotpACrwnM4urpJiJhlBj3VF+JEB++JJTe+Z+TmVb0QS04CR3u5QQfmxrPD8vNeokGiejlTQ7fV8eNPW9ivPX7Vu+NUGfKPWdK+/8oKCOB6en1snbEUFHalAZHiyJrcoABpqNSsY2KTEEjVAYU3A8RpyfleTrbalyn0Jjc6KVgpZynzFlWcBMUhnYfrRnWy3A6UJPY2Kq2U0pL6wA54NwaBHQPTmLao4QYEIkqW2jAAdkk7T/Gwdet/9VlqvG+ArqrjCEe7IBttSxjQXU4JDfeorgVGfxLTeXhIVigI3EJQx8W67grya5mo9B36RsBkMWN60AIb7um8mArhYNEpLG3QH/m3M2tpMje4sOO0Dg0uo1dP9QJaUj6sDKbxRVFyg0H7zkVY8Xzx9Nj8dXPAWVh+gr4J14pZ8jaqqmhwv+GXEdHvEXJhtm+P1KY+HEzDxxF0QtIib0s6oYEkKDdB3TU5x4DQtiblGQLF4+pqY27nZ1fl1FvYZ26MGMFikFEvJ31+VMfBOnTAKbjQ/Gup69C99jpCwr7gqY1kH2YLU1Q2gy5t2miLHwxH+2VsYCEsBO1GuaeKemPYzaJe4dANcyqYGjYcfUMOh1deYUtAWlMECQ9YKO9JuQ/8KonWToqTkfFJk21iyLQAbQNSVlS2K/cBQ7bCWeuA3KmUmORD6dAQAAAAASUVORK5CYII=;" parent="1" vertex="1">
          <mxGeometry x="-469" y="-79" width="70" height="70" as="geometry" />
        </mxCell>
        <mxCell id="sK5v--wTXMD53wZldBIz-23" value="&lt;h1&gt;Región 2 (Norteamérica)&lt;/h1&gt;" style="text;html=1;align=center;verticalAlign=middle;resizable=0;points=[];autosize=1;strokeColor=none;fillColor=none;" parent="1" vertex="1">
          <mxGeometry x="43" y="68" width="300" height="70" as="geometry" />
        </mxCell>
        <mxCell id="sK5v--wTXMD53wZldBIz-29" value="" style="endArrow=classic;html=1;rounded=0;strokeWidth=3;entryX=0;entryY=0.5;entryDx=0;entryDy=0;exitX=1;exitY=0.5;exitDx=0;exitDy=0;" parent="1" source="sK5v--wTXMD53wZldBIz-36" edge="1" target="j7N0jPnnDhKD8VTJG3_s-16">
          <mxGeometry width="50" height="50" relative="1" as="geometry">
            <mxPoint x="-180" y="-5" as="sourcePoint" />
            <mxPoint x="-46" y="-5" as="targetPoint" />
          </mxGeometry>
        </mxCell>
        <mxCell id="sK5v--wTXMD53wZldBIz-33" value="" style="endArrow=classic;html=1;rounded=0;strokeWidth=3;movable=1;resizable=1;rotatable=1;deletable=1;editable=1;locked=0;connectable=1;entryX=0;entryY=0.5;entryDx=0;entryDy=0;exitX=0.5;exitY=1;exitDx=0;exitDy=0;" parent="1" source="j7N0jPnnDhKD8VTJG3_s-16" target="j7N0jPnnDhKD8VTJG3_s-98" edge="1">
          <mxGeometry width="50" height="50" relative="1" as="geometry">
            <mxPoint x="-1.7534246575341967" y="40" as="sourcePoint" />
            <mxPoint x="170" y="360" as="targetPoint" />
            <Array as="points">
              <mxPoint x="-142" y="367" />
            </Array>
          </mxGeometry>
        </mxCell>
        <mxCell id="sK5v--wTXMD53wZldBIz-66" value="&lt;h1&gt;Región 1 (Europa)&lt;/h1&gt;" style="text;html=1;align=center;verticalAlign=middle;resizable=0;points=[];autosize=1;strokeColor=none;fillColor=none;" parent="1" vertex="1">
          <mxGeometry x="43" y="-683" width="230" height="70" as="geometry" />
        </mxCell>
        <mxCell id="sK5v--wTXMD53wZldBIz-67" value="&lt;h2&gt;&lt;font style=&quot;color: rgb(0, 102, 204);&quot;&gt;Red Virtual 1&lt;/font&gt;&lt;/h2&gt;" style="text;html=1;align=center;verticalAlign=middle;resizable=0;points=[];autosize=1;strokeColor=none;fillColor=none;" parent="1" vertex="1">
          <mxGeometry x="210" y="-591.95" width="130" height="60" as="geometry" />
        </mxCell>
        <mxCell id="sK5v--wTXMD53wZldBIz-73" value="" style="endArrow=classic;html=1;rounded=0;strokeWidth=3;entryX=0;entryY=0.5;entryDx=0;entryDy=0;exitX=0.5;exitY=1;exitDx=0;exitDy=0;" parent="1" source="j7N0jPnnDhKD8VTJG3_s-12" target="j7N0jPnnDhKD8VTJG3_s-21" edge="1">
          <mxGeometry width="50" height="50" relative="1" as="geometry">
            <mxPoint x="570" y="-342" as="sourcePoint" />
            <mxPoint x="570" y="-291" as="targetPoint" />
            <Array as="points">
              <mxPoint x="185" y="-275" />
            </Array>
          </mxGeometry>
        </mxCell>
        <mxCell id="sK5v--wTXMD53wZldBIz-74" value="&lt;h3&gt;&lt;font style=&quot;color: rgb(0, 255, 0);&quot;&gt;Zona de disponibilidad 1&lt;/font&gt;&lt;/h3&gt;" style="text;html=1;align=center;verticalAlign=middle;resizable=0;points=[];autosize=1;strokeColor=none;fillColor=none;" parent="1" vertex="1">
          <mxGeometry x="412" y="-443" width="190" height="60" as="geometry" />
        </mxCell>
        <mxCell id="sK5v--wTXMD53wZldBIz-75" value="&lt;h3&gt;&lt;font style=&quot;color: rgb(0, 255, 0);&quot;&gt;Zona de disponibilidad 2&lt;/font&gt;&lt;/h3&gt;" style="text;html=1;align=center;verticalAlign=middle;resizable=0;points=[];autosize=1;strokeColor=none;fillColor=none;" parent="1" vertex="1">
          <mxGeometry x="412" y="-223.5" width="190" height="60" as="geometry" />
        </mxCell>
        <mxCell id="sK5v--wTXMD53wZldBIz-80" value="" style="endArrow=classic;html=1;rounded=0;strokeWidth=3;exitX=0.5;exitY=0;exitDx=0;exitDy=0;" parent="1" source="j7N0jPnnDhKD8VTJG3_s-12" target="j7N0jPnnDhKD8VTJG3_s-19" edge="1">
          <mxGeometry width="50" height="50" relative="1" as="geometry">
            <mxPoint x="570" y="-432" as="sourcePoint" />
            <mxPoint x="570" y="-486" as="targetPoint" />
            <Array as="points">
              <mxPoint x="185" y="-495" />
            </Array>
          </mxGeometry>
        </mxCell>
        <mxCell id="sK5v--wTXMD53wZldBIz-83" value="&lt;h2&gt;Clientes&lt;/h2&gt;" style="text;html=1;align=center;verticalAlign=middle;resizable=0;points=[];autosize=1;strokeColor=none;fillColor=none;" parent="1" vertex="1">
          <mxGeometry x="-523" y="-139" width="90" height="60" as="geometry" />
        </mxCell>
        <mxCell id="sK5v--wTXMD53wZldBIz-85" value="&lt;h2&gt;Azure Traffic Manager&lt;br&gt;(Balanceador de carga&lt;br&gt;global)&lt;br&gt;&lt;/h2&gt;" style="text;html=1;align=center;verticalAlign=middle;resizable=0;points=[];autosize=1;strokeColor=none;fillColor=none;" parent="1" vertex="1">
          <mxGeometry x="-97" y="-60" width="220" height="110" as="geometry" />
        </mxCell>
        <mxCell id="sK5v--wTXMD53wZldBIz-86" value="" style="endArrow=classic;html=1;rounded=0;strokeWidth=3;exitX=0.5;exitY=0;exitDx=0;exitDy=0;" parent="1" source="j7N0jPnnDhKD8VTJG3_s-16" target="j7N0jPnnDhKD8VTJG3_s-12" edge="1">
          <mxGeometry width="50" height="50" relative="1" as="geometry">
            <mxPoint x="0.0037662337663459944" y="-43" as="sourcePoint" />
            <mxPoint x="411.77" y="-383" as="targetPoint" />
            <Array as="points">
              <mxPoint x="-142" y="-385" />
            </Array>
          </mxGeometry>
        </mxCell>
        <mxCell id="sK5v--wTXMD53wZldBIz-88" value="&lt;h2&gt;Azure Load Balancer&lt;br&gt;Balanceador de carga &lt;br&gt;regional 1&lt;/h2&gt;" style="text;html=1;align=center;verticalAlign=middle;resizable=0;points=[];autosize=1;strokeColor=none;fillColor=none;" parent="1" vertex="1">
          <mxGeometry x="219" y="-438" width="210" height="110" as="geometry" />
        </mxCell>
        <mxCell id="sK5v--wTXMD53wZldBIz-103" value="&lt;h2&gt;&lt;font style=&quot;color: rgb(0, 102, 204);&quot;&gt;Virtual Network Gateway&lt;/font&gt;&lt;/h2&gt;" style="text;html=1;align=center;verticalAlign=middle;resizable=0;points=[];autosize=1;strokeColor=none;fillColor=none;" parent="1" vertex="1">
          <mxGeometry x="185" y="-232.85" width="230" height="60" as="geometry" />
        </mxCell>
        <mxCell id="sK5v--wTXMD53wZldBIz-105" value="&lt;h2&gt;&lt;font color=&quot;rgba(0, 0, 0, 0)&quot;&gt;aa&lt;/font&gt;&lt;/h2&gt;" style="text;html=1;align=center;verticalAlign=middle;resizable=0;points=[];autosize=1;strokeColor=none;fillColor=none;" parent="1" vertex="1">
          <mxGeometry x="1040" y="-35" width="40" height="60" as="geometry" />
        </mxCell>
        <mxCell id="sK5v--wTXMD53wZldBIz-106" value="&lt;h2&gt;&lt;font color=&quot;rgba(0, 0, 0, 0)&quot;&gt;aa&lt;/font&gt;&lt;/h2&gt;" style="text;html=1;align=center;verticalAlign=middle;resizable=0;points=[];autosize=1;strokeColor=none;fillColor=none;" parent="1" vertex="1">
          <mxGeometry x="-624" y="-35" width="40" height="60" as="geometry" />
        </mxCell>
        <mxCell id="sK5v--wTXMD53wZldBIz-107" value="&lt;h2&gt;&lt;font color=&quot;rgba(0, 0, 0, 0)&quot;&gt;aa&lt;/font&gt;&lt;/h2&gt;" style="text;html=1;align=center;verticalAlign=middle;resizable=0;points=[];autosize=1;strokeColor=none;fillColor=none;" parent="1" vertex="1">
          <mxGeometry x="1000" y="656" width="40" height="60" as="geometry" />
        </mxCell>
        <mxCell id="sK5v--wTXMD53wZldBIz-108" value="&lt;h2&gt;&lt;font color=&quot;rgba(0, 0, 0, 0)&quot;&gt;aa&lt;/font&gt;&lt;/h2&gt;" style="text;html=1;align=center;verticalAlign=middle;resizable=0;points=[];autosize=1;strokeColor=none;fillColor=none;" parent="1" vertex="1">
          <mxGeometry x="1000" y="-726" width="40" height="60" as="geometry" />
        </mxCell>
        <mxCell id="sK5v--wTXMD53wZldBIz-109" value="&lt;h1&gt;ARQUITECTURA &lt;br&gt;SERVICIO WEB + BALANCEADOR&lt;br&gt;&amp;nbsp;DE CARGA EN AZURE&lt;br&gt;&lt;/h1&gt;" style="text;html=1;align=center;verticalAlign=middle;resizable=0;points=[];autosize=1;strokeColor=none;fillColor=none;" parent="1" vertex="1">
          <mxGeometry x="355" y="-62" width="420" height="130" as="geometry" />
        </mxCell>
        <mxCell id="j7N0jPnnDhKD8VTJG3_s-12" value="" style="shape=image;verticalLabelPosition=bottom;labelBackgroundColor=default;verticalAlign=top;aspect=fixed;imageAspect=0;editableCssRules=.*;image=data:image/svg+xml,PHN2ZyB4bWxucz0iaHR0cDovL3d3dy53My5vcmcvMjAwMC9zdmciIHZpZXdCb3g9Ii0wLjAwMTU1MDc5ODc3MDA0MDI3MzcgLTAuMDAxNTUwMjAwOTc3MzYyNjkyNCAxOC4wMDMxMDEzNDg4NzY5NTMgMTguMDAzMDY1MTA5MjUyOTMiIGhlaWdodD0iMTguMDAzMDY1MTA5MjUyOTMiIHdpZHRoPSIxOC4wMDMxMDEzNDg4NzY5NTMiIGlkPSJlMWU3MWUyOS0wNjVhLTQ2ZjctYWQ0Yi01MmFmMzZhMGJmY2IiPjxkZWZzPjxsaW5lYXJHcmFkaWVudCBncmFkaWVudFVuaXRzPSJ1c2VyU3BhY2VPblVzZSIgeTI9Ii0xLjAyIiB4Mj0iOSIgeTE9IjE5Ljg1IiB4MT0iOSIgaWQ9ImVmODQ2NjNhLWE3YjYtNDZhNy1hMjc1LTFlNDE5ZjVlYWU2MiI+PHN0b3Agc3RvcC1jb2xvcj0iIzVlOTYyNCIgb2Zmc2V0PSIwIi8+PHN0b3Agc3RvcC1jb2xvcj0iIzVmOTcyNCIgb2Zmc2V0PSIwLjAyIi8+PHN0b3Agc3RvcC1jb2xvcj0iIzc2YmMyZCIgb2Zmc2V0PSIxIi8+PC9saW5lYXJHcmFkaWVudD48L2RlZnM+PHRpdGxlPkljb24tbmV0d29ya2luZy02MjwvdGl0bGU+PHBhdGggZmlsbD0idXJsKCNlZjg0NjYzYS1hN2I2LTQ2YTctYTI3NS0xZTQxOWY1ZWFlNjIpIiBkPSJNLjE4LDguNTcsOC41Ny4xOGEuNi42LDAsMCwxLC44NiwwbDguMzksOC4zOWEuNi42LDAsMCwxLDAsLjg2bC04LjQsOC40YS42LjYsMCwwLDEtLjg0LDBMLjE4LDkuNDNBLjYuNiwwLDAsMSwuMTgsOC41N1oiLz48cGF0aCBmaWxsPSIjYjRlYzM2IiBkPSJNMTEuMiw0LDkuMDgsMS44OWEuMTIuMTIsMCwwLDAtLjE2LDBMNi44LDRhLjEuMSwwLDAsMCwuMDguMThIOC4xMmEuMTEuMTEsMCwwLDEsLjExLjExdjJhLjExLjExLDAsMCwwLC4xMS4xMUg5LjY2YS4xMS4xMSwwLDAsMCwuMTEtLjExdi0yYS4xMS4xMSwwLDAsMSwuMTEtLjExaDEuMjRBLjEuMSwwLDAsMCwxMS4yLDRaIi8+PHBhdGggZmlsbD0iI2I0ZWMzNiIgZD0iTTQsNi42MSwxLjksOC43NGEuMTEuMTEsMCwwLDAsMCwuMTVMNCwxMWEuMTEuMTEsMCwwLDAsLjE5LS4wOFY5LjY5YS4xMS4xMSwwLDAsMSwuMTEtLjExaDJhLjEuMSwwLDAsMCwuMS0uMTFWOC4xNUEuMS4xLDAsMCwwLDYuMzMsOGgtMmEuMS4xLDAsMCwxLS4xMS0uMVY2LjY5QS4xMS4xMSwwLDAsMCw0LDYuNjFaIi8+PHBhdGggZmlsbD0iI2I0ZWMzNiIgZD0iTTE0LjA4LDExbDIuMTMtMi4xMmEuMTEuMTEsMCwwLDAsMC0uMTVMMTQuMDgsNi42MWEuMTEuMTEsMCwwLDAtLjE4LjA4VjcuOTRhLjEuMSwwLDAsMS0uMTEuMWgtMmEuMS4xLDAsMCwwLS4xLjExVjkuNDdhLjEuMSwwLDAsMCwuMS4xMWgyYS4xMS4xMSwwLDAsMSwuMTEuMTF2MS4yNEEuMTEuMTEsMCwwLDAsMTQuMDgsMTFaIi8+PHBhdGggZmlsbD0iI2ZmZiIgZD0iTTExLjc5LDlhMi43OSwyLjc5LDAsMSwwLTMuNTQsMi42N3YuOTVhMS43MSwxLjcxLDAsMSwwLDEuNTcsMHYtMUEyLjc3LDIuNzcsMCwwLDAsMTEuNzksOVoiLz48Y2lyY2xlIGZpbGw9IiM1ZWEwZWYiIHI9IjEuNjIiIGN5PSI4Ljk5IiBjeD0iOS4wMSIgaWQ9ImU5OWMzMzg3LTE1YzMtNGYyOC1iZDRiLWNiMjA5YjQzMGUwNiIvPjwvc3ZnPg==;" vertex="1" parent="1">
          <mxGeometry x="140" y="-430" width="90" height="90" as="geometry" />
        </mxCell>
        <mxCell id="j7N0jPnnDhKD8VTJG3_s-13" value="" style="shape=image;verticalLabelPosition=bottom;labelBackgroundColor=default;verticalAlign=top;aspect=fixed;imageAspect=0;editableCssRules=.*;image=data:image/svg+xml,PHN2ZyB4bWxucz0iaHR0cDovL3d3dy53My5vcmcvMjAwMC9zdmciIHZpZXdCb3g9Ii0wLjI1MjgxMjA1NzczMzUzNTc3IDMuNDgyNzcyMTExODkyNyAxOC41MDMwODAzNjgwNDE5OTIgMTEuMDMyODQzNTg5NzgyNzE1IiBoZWlnaHQ9IjExLjAzMjg0MzU4OTc4MjcxNSIgd2lkdGg9IjE4LjUwMzA4MDM2ODA0MTk5MiIgaWQ9ImExNjA2YTUyLWZiMTQtNDYzNy04N2RlLTRkNTI0YmJhMTgyOSI+PGRlZnM+PGxpbmVhckdyYWRpZW50IGdyYWRpZW50VW5pdHM9InVzZXJTcGFjZU9uVXNlIiBncmFkaWVudFRyYW5zZm9ybT0idHJhbnNsYXRlKDIuMDMgLTAuNCkgcm90YXRlKC0wLjA4KSIgeTI9IjEwLjIzIiB4Mj0iMTEuNTIiIHkxPSI4LjU5IiB4MT0iOS44OCIgaWQ9ImYwMjBmYjdlLTIyNDMtNDUwMS04MTUzLTVkNjliZDNjMzRmNyI+PHN0b3Agc3RvcC1jb2xvcj0iIzg2ZDYzMyIgb2Zmc2V0PSIwIi8+PHN0b3Agc3RvcC1jb2xvcj0iIzVlOTYyNCIgb2Zmc2V0PSIxIi8+PC9saW5lYXJHcmFkaWVudD48bGluZWFyR3JhZGllbnQgZ3JhZGllbnRVbml0cz0idXNlclNwYWNlT25Vc2UiIHkyPSIxMC4yMyIgeDI9IjcuODEiIHkxPSI4LjU5IiB4MT0iNi4xOCIgaWQ9ImIzYzJiYzk0LThjN2MtNDhhMi05NzE5LTZlZTg5OWE0M2E5NyI+PHN0b3Agc3RvcC1jb2xvcj0iIzg2ZDYzMyIgb2Zmc2V0PSIwIi8+PHN0b3Agc3RvcC1jb2xvcj0iIzVlOTYyNCIgb2Zmc2V0PSIxIi8+PC9saW5lYXJHcmFkaWVudD48bGluZWFyR3JhZGllbnQgZ3JhZGllbnRVbml0cz0idXNlclNwYWNlT25Vc2UiIHkyPSIxMC4yMyIgeDI9IjQuMTEiIHkxPSI4LjU5IiB4MT0iMi40OCIgaWQ9ImU5MDBjMzVkLTA5NTgtNGQ0Zi1iMjhmLTMwMmVlYWFmNTJmNSI+PHN0b3Agc3RvcC1jb2xvcj0iIzg2ZDYzMyIgb2Zmc2V0PSIwIi8+PHN0b3Agc3RvcC1jb2xvcj0iIzVlOTYyNCIgb2Zmc2V0PSIxIi8+PC9saW5lYXJHcmFkaWVudD48L2RlZnM+PHRpdGxlPkljb24tbmV0d29ya2luZy02MTwvdGl0bGU+PGNpcmNsZSBmaWxsPSJ1cmwoI2YwMjBmYjdlLTIyNDMtNDUwMS04MTUzLTVkNjliZDNjMzRmNykiIHI9IjEuMTYiIGN5PSI4Ljk5IiBjeD0iMTIuNzQiLz48Y2lyY2xlIGZpbGw9InVybCgjYjNjMmJjOTQtOGM3Yy00OGEyLTk3MTktNmVlODk5YTQzYTk3KSIgcj0iMS4xNiIgY3k9IjkiIGN4PSI5LjA0Ii8+PGNpcmNsZSBmaWxsPSJ1cmwoI2U5MDBjMzVkLTA5NTgtNGQ0Zi1iMjhmLTMwMmVlYWFmNTJmNSkiIHI9IjEuMTYiIGN5PSI5IiBjeD0iNS4zNCIvPjxwYXRoIGZpbGw9IiM1MGU2ZmYiIHRyYW5zZm9ybT0idHJhbnNsYXRlKDEzLjE4IDE2LjkzKSByb3RhdGUoMTM0LjkyKSIgZD0iTTIuNjEsNy4yOGguOTRhLjMuMywwLDAsMSwuMy4zdjYuOTRhLjYuNiwwLDAsMS0uNi42SDIuMzFhMCwwLDAsMCwxLDAsMFY3LjU4YS4zLjMsMCwwLDEsLjMtLjNaIi8+PHBhdGggZmlsbD0iIzE0OTBkZiIgdHJhbnNmb3JtPSJ0cmFuc2xhdGUoNS42NiAtMC4xNikgcm90YXRlKDQ0LjkyKSIgZD0iTTIuNTYsMi45MUgzLjVhLjMuMywwLDAsMSwuMy4zdjcuNDNhMCwwLDAsMCwxLDAsMEgyLjg2YS42LjYsMCwwLDEtLjYtLjZWMy4yMWEuMy4zLDAsMCwxLC4zLS4zWiIvPjxwYXRoIGZpbGw9IiM1MGU2ZmYiIHRyYW5zZm9ybT0idHJhbnNsYXRlKDEyLjMyIC03LjI4KSByb3RhdGUoNDUuMDgpIiBkPSJNMTQuMTUsNy4yOGguOTRhLjYuNiwwLDAsMSwuNi42djYuOTRhLjMuMywwLDAsMS0uMy4zaC0uOTRhLjMuMywwLDAsMS0uMy0uM1Y3LjI4YTAsMCwwLDAsMSwwLDBaIi8+PHBhdGggZmlsbD0iIzE0OTBkZiIgdHJhbnNmb3JtPSJ0cmFuc2xhdGUoMzAuMzYgMC45OSkgcm90YXRlKDEzNS4wOCkiIGQ9Ik0xNC44MSwyLjkxaC45NGEwLDAsMCwwLDEsMCwwdjcuNDNhLjMuMywwLDAsMS0uMy4zSDE0LjVhLjMuMywwLDAsMS0uMy0uM1YzLjUxYS42LjYsMCwwLDEsLjYtLjZaIi8+PC9zdmc+;" vertex="1" parent="1">
          <mxGeometry x="120" y="-587.05" width="90" height="52.1" as="geometry" />
        </mxCell>
        <mxCell id="j7N0jPnnDhKD8VTJG3_s-14" value="" style="shape=image;verticalLabelPosition=bottom;labelBackgroundColor=default;verticalAlign=top;aspect=fixed;imageAspect=0;editableCssRules=.*;image=data:image/svg+xml,PHN2ZyB4bWxucz0iaHR0cDovL3d3dy53My5vcmcvMjAwMC9zdmciIHZpZXdCb3g9IjIuMjIwMDAwMDI4NjEwMjI5NSAtMC4wMDA0NDI0NzQwMDM2NDgzODU0IDEzLjU2MDAwMDQxOTYxNjcgMTguMDUwNDQzNjQ5MjkxOTkyIiBoZWlnaHQ9IjE4LjA1MDQ0MzY0OTI5MTk5MiIgd2lkdGg9IjEzLjU2MDAwMDQxOTYxNjciIGlkPSJiNmY3NGNhNS0zYWU2LTQyNmYtOWVmMS05ZmY2YmJhYTdmMWMiPjxkZWZzPjxsaW5lYXJHcmFkaWVudCBncmFkaWVudFVuaXRzPSJ1c2VyU3BhY2VPblVzZSIgeTI9IjIwLjA1IiB4Mj0iOS4xMiIgeTE9Ii03Ljc5IiB4MT0iOC41OSIgaWQ9ImJkNzMwNWY4LTg3ODktNDYwMC1hMWYyLTY1OTRlNjBlZWZjYyI+PHN0b3Agc3RvcC1jb2xvcj0iIzMyZDRmNSIgb2Zmc2V0PSIwLjIyIi8+PHN0b3Agc3RvcC1jb2xvcj0iIzMxZDFmMyIgb2Zmc2V0PSIwLjQ3Ii8+PHN0b3Agc3RvcC1jb2xvcj0iIzJlYzllYiIgb2Zmc2V0PSIwLjYzIi8+PHN0b3Agc3RvcC1jb2xvcj0iIzI5YmFkZSIgb2Zmc2V0PSIwLjc3Ii8+PHN0b3Agc3RvcC1jb2xvcj0iIzIyYTVjYiIgb2Zmc2V0PSIwLjg5Ii8+PHN0b3Agc3RvcC1jb2xvcj0iIzE5OGFiMyIgb2Zmc2V0PSIxIi8+PHN0b3Agc3RvcC1jb2xvcj0iIzE5OGFiMyIgb2Zmc2V0PSIxIi8+PC9saW5lYXJHcmFkaWVudD48L2RlZnM+PHRpdGxlPkljb24tbmV0d29ya2luZy02MzwvdGl0bGU+PHBhdGggZmlsbD0idXJsKCNiZDczMDVmOC04Nzg5LTQ2MDAtYTFmMi02NTk0ZTYwZWVmY2MpIiBkPSJNMTUuMDYsOC42N2gtMVY1LjU5YTUuODEsNS44MSwwLDAsMC0xLjQ5LTMuOTJBNC43OSw0Ljc5LDAsMCwwLDguOTEsMGE0Ljc5LDQuNzksMCwwLDAtMy43LDEuNjdBNS43Myw1LjczLDAsMCwwLDMuNzIsNS41OVY4LjY3SDIuOTFhLjcuNywwLDAsMC0uNjkuNjl2OGEuNy43LDAsMCwwLC42OS42OUgxNS4wNmEuNzEuNzEsMCwwLDAsLjctLjY5VjkuMzZBLjcxLjcxLDAsMCwwLDE1LjA2LDguNjdabS0zLjM3LDBINi4xM1Y1LjU0QTMuMTgsMy4xOCwwLDAsMSw3LDMuMzlhMi41MSwyLjUxLDAsMCwxLDEuODgtLjg2LDIuNTQsMi41NCwwLDAsMSwxLjg5Ljg2LDMuMTksMy4xOSwwLDAsMSwuMzIuNDNoMGEzLDMsMCwwLDEsLjYxLDEuNzFaIi8+PHBhdGggZmlsbD0iIzUwZTZmZiIgZD0iTTE1LjA5LDguNjdIMi45MmEuNjYuNjYsMCwwLDAtLjQ0LjE3bDEzLjA1LDlhLjY3LjY3LDAsMCwwLC4yNS0uNTJ2LThBLjcxLjcxLDAsMCwwLDE1LjA5LDguNjdaIi8+PHBhdGggb3BhY2l0eT0iMC4yIiBmaWxsPSIjZmZmIiBkPSJNMi45NCw4LjY3SDE1LjFhLjcuNywwLDAsMSwuNDUuMTdsLTEzLjA2LDlhLjcuNywwLDAsMS0uMjUtLjUydi04QS43Mi43MiwwLDAsMSwyLjk0LDguNjdaIi8+PHBhdGggZmlsbD0iI2ZmZiIgZD0iTTcuOCwxMC42LDksOS40YS4wNy4wNywwLDAsMSwuMDksMGwxLjE5LDEuMmEuMDYuMDYsMCwwLDEsMCwuMWgtLjdhLjA2LjA2LDAsMCwwLS4wNi4wNlYxMi4zYS4wNi4wNiwwLDAsMS0uMDYuMDZIOC42N2EuMDUuMDUsMCwwLDEtLjA2LS4wNlYxMC43NmEuMDcuMDcsMCwwLDAtLjA3LS4wNmgtLjdBLjA2LjA2LDAsMCwxLDcuOCwxMC42Wm0yLjQ3LDUuNDhMOS4wOCwxNy4yN2EuMDYuMDYsMCwwLDEtLjA5LDBMNy44LDE2LjA4YS4wNi4wNiwwLDAsMSwwLS4xaC43YS4wNy4wNywwLDAsMCwuMDctLjA2VjE0LjM3YS4wNi4wNiwwLDAsMSwuMDYtLjA2aC43NGEuMDYuMDYsMCwwLDEsLjA2LjA2djEuNTVhLjA2LjA2LDAsMCwwLC4wNi4wNmguN0EuMDYuMDYsMCwwLDEsMTAuMjcsMTYuMDhabS00LjctMS41NXYtLjdhLjA2LjA2LDAsMCwwLS4wNi0uMDZINGEuMDYuMDYsMCwwLDEtLjA2LS4wNlYxM0EuMDYuMDYsMCwwLDEsNCwxMi45MUg1LjUxYS4wNi4wNiwwLDAsMCwuMDYtLjA2di0uN2EuMDcuMDcsMCwwLDEsLjExLS4wNWwxLjE5LDEuMmEuMDYuMDYsMCwwLDEsMCwuMDhsLTEuMTksMS4yQS4wNy4wNywwLDAsMSw1LjU3LDE0LjUzWm02LjkzLTIuMzh2LjdhLjA2LjA2LDAsMCwwLC4wNi4wNkgxNC4xcy4wNywwLC4wNy4wNnYuNzRhLjA3LjA3LDAsMCwxLS4wNy4wNkgxMi41NmEuMDYuMDYsMCwwLDAtLjA2LjA2di43YS4wNi4wNiwwLDAsMS0uMS4wNWwtMS4xOS0xLjJhMCwwLDAsMCwxLDAtLjA4bDEuMTktMS4yUzEyLjUsMTIuMDksMTIuNSwxMi4xNVoiLz48L3N2Zz4=;" vertex="1" parent="1">
          <mxGeometry x="125" y="-250" width="60" height="77.15" as="geometry" />
        </mxCell>
        <mxCell id="j7N0jPnnDhKD8VTJG3_s-16" value="" style="shape=image;verticalLabelPosition=bottom;labelBackgroundColor=default;verticalAlign=top;aspect=fixed;imageAspect=0;editableCssRules=.*;image=data:image/svg+xml,PHN2ZyB4bWxucz0iaHR0cDovL3d3dy53My5vcmcvMjAwMC9zdmciIHZpZXdCb3g9IjAuNSAwLjUgMTcgMTciIGhlaWdodD0iMTciIHdpZHRoPSIxNyIgaWQ9ImExOGI5MDVkLTkzYzYtNGZlZS1iYTViLTY5OWUyNTYyZTAwZiI+PGRlZnM+PGxpbmVhckdyYWRpZW50IGdyYWRpZW50VW5pdHM9InVzZXJTcGFjZU9uVXNlIiB5Mj0iMC41IiB4Mj0iOSIgeTE9IjE3LjUiIHgxPSI5IiBpZD0iYjAyYzdhMjAtMDFkYS00ZGFmLTkxYjktZTExNTI4NDE4ZGZjIj48c3RvcCBzdG9wLWNvbG9yPSIjNmY0YmIyIiBvZmZzZXQ9IjAuMTYiLz48c3RvcCBzdG9wLWNvbG9yPSIjNzQ1MGI1IiBvZmZzZXQ9IjAuMzIiLz48c3RvcCBzdG9wLWNvbG9yPSIjODI1ZGJmIiBvZmZzZXQ9IjAuNTEiLz48c3RvcCBzdG9wLWNvbG9yPSIjOWE3MmNlIiBvZmZzZXQ9IjAuNzIiLz48c3RvcCBzdG9wLWNvbG9yPSIjYmI5MGU0IiBvZmZzZXQ9IjAuOTQiLz48c3RvcCBzdG9wLWNvbG9yPSIjYzY5YWViIiBvZmZzZXQ9IjEiLz48L2xpbmVhckdyYWRpZW50PjwvZGVmcz48dGl0bGU+SWNvbi1uZXR3b3JraW5nLTY1PC90aXRsZT48cGF0aCBmaWxsPSJ1cmwoI2IwMmM3YTIwLTAxZGEtNGRhZi05MWI5LWUxMTUyODQxOGRmYykiIGQ9Ik0xMi4yOS41SDUuNzFhLjU2LjU2LDAsMCwwLS40LjE3TC42Nyw1LjMxYS41Ni41NiwwLDAsMC0uMTcuNHY2LjU4YS41Ni41NiwwLDAsMCwuMTcuNGw0LjY0LDQuNjRhLjU2LjU2LDAsMCwwLC40LjE3aDYuNThhLjU2LjU2LDAsMCwwLC40LS4xN2w0LjY0LTQuNjRhLjU2LjU2LDAsMCwwLC4xNy0uNFY1LjcxYS41Ni41NiwwLDAsMC0uMTctLjRMMTIuNjkuNjdBLjU2LjU2LDAsMCwwLDEyLjI5LjVaIi8+PHBhdGggZmlsbD0iI2YyZjJmMiIgZD0iTTYsNy42NGwtLjA3LjA3LTEsMWEuMTQuMTQsMCwwLDAsLjEuMjNoMy44YS4xNC4xNCwwLDAsMCwuMTQtLjE0VjUuMDVBLjE0LjE0LDAsMCwwLDguNjQsNWwtMSwxLS4wNy4wN2EuMTUuMTUsMCwwLDEtLjIsMEw0LjgsMy41NCwzLjQzLDQuOTIsNiw3LjQ0QS4xNS4xNSwwLDAsMSw2LDcuNjRaIi8+PHBhdGggZmlsbD0iI2YyZjJmMiIgZD0iTTE2LjE4LDUuOTEsMTIuMDksMS44MmEuMjguMjgsMCwwLDAtLjItLjA4SDYuMTFhLjI4LjI4LDAsMCwwLS4yLjA4TDEuODIsNS45MWEuMjguMjgsMCwwLDAtLjA4LjJ2NS43OGEuMy4zLDAsMCwwLC4wOC4ybDQuMDksNC4wOWEuMjguMjgsMCwwLDAsLjIuMDhoNS43OGEuMjguMjgsMCwwLDAsLjItLjA4bDQuMDktNC4wOWEuMy4zLDAsMCwwLC4wOC0uMlY2LjExQS4yOC4yOCwwLDAsMCwxNi4xOCw1LjkxWm0tLjM2LDUuNDVMMTIuNjcsOC4yMWwuNzYtLjc3YS4xNi4xNiwwLDAsMCwwLS4yNC4xNi4xNiwwLDAsMC0uMTEsMGwtMi43MS0uMDdhLjE3LjE3LDAsMCwwLS4xNy4xNmgwTDEwLjUxLDEwYS4xNi4xNiwwLDAsMCwuMTcuMTZoMGEuMTMuMTMsMCwwLDAsLjEyLDBsLjg1LS44NEwxNSwxMi42MmwtMi41NCwyLjU0TDksMTEuNzEsOS44LDExYS4xNi4xNiwwLDAsMCwwLS4yNC4xNi4xNiwwLDAsMC0uMTEtLjA1TDcsMTAuNTlhLjE3LjE3LDAsMCwwLS4xNy4xNmgwbC4wNywyLjcxYS4xNi4xNiwwLDAsMCwuMTcuMTZoMGEuMTcuMTcsMCwwLDAsLjEyLS4wNUw4LDEyLjc0bDMuMDgsMy4wOEg2LjE3bC00LTRWNi4xN0wzLjQzLDQuOTIsNC44LDMuNTQsNi4xNywyLjE3aDUuNjZsNCw0WiIvPjwvc3ZnPg==;" vertex="1" parent="1">
          <mxGeometry x="-187" y="-50" width="90" height="90" as="geometry" />
        </mxCell>
        <mxCell id="j7N0jPnnDhKD8VTJG3_s-18" value="" style="shape=image;verticalLabelPosition=bottom;labelBackgroundColor=default;verticalAlign=top;aspect=fixed;imageAspect=0;editableCssRules=.*;image=data:image/svg+xml,PHN2ZyB4bWxucz0iaHR0cDovL3d3dy53My5vcmcvMjAwMC9zdmciIHZpZXdCb3g9Ii0wLjExOTk5OTk5NzMxNzc5MDk5IDAuMjA5OTk5OTkzNDQzNDg5MDcgMTggMTYuNjMwMDAxMDY4MTE1MjM0IiBoZWlnaHQ9IjE2LjYzMDAwMTA2ODExNTIzNCIgd2lkdGg9IjE4IiBpZD0iZmQ0NTRmMWMtNTUwNi00NGI4LTg3NGUtODgxNGI4YjJmNzBiIj48ZGVmcz48bGluZWFyR3JhZGllbnQgZ3JhZGllbnRVbml0cz0idXNlclNwYWNlT25Vc2UiIHkyPSIwLjIxIiB4Mj0iOC44OCIgeTE9IjEyLjIxIiB4MT0iOC44OCIgaWQ9ImYzNGQ5NTY5LTJiZDAtNDAwMi04ZjE2LTNkMDFkODEwNmNiNSI+PHN0b3Agc3RvcC1jb2xvcj0iIzAwNzhkNCIgb2Zmc2V0PSIwIi8+PHN0b3Agc3RvcC1jb2xvcj0iIzVlYTBlZiIgb2Zmc2V0PSIwLjgyIi8+PC9saW5lYXJHcmFkaWVudD48bGluZWFyR3JhZGllbnQgZ3JhZGllbnRVbml0cz0idXNlclNwYWNlT25Vc2UiIHkyPSIxMi4yMSIgeDI9IjguODgiIHkxPSIxNi44NCIgeDE9IjguODgiIGlkPSJiZGI0NWEwYi1lYjU4LTQ5NzAtYTYwYS1mYjJjZTMxNGY4NjYiPjxzdG9wIHN0b3AtY29sb3I9IiNjY2MiIG9mZnNldD0iMC4xNSIvPjxzdG9wIHN0b3AtY29sb3I9IiM3MDcwNzAiIG9mZnNldD0iMSIvPjwvbGluZWFyR3JhZGllbnQ+PC9kZWZzPjx0aXRsZT5JY29uLWNvbXB1dGUtMjE8L3RpdGxlPjxyZWN0IGZpbGw9InVybCgjZjM0ZDk1NjktMmJkMC00MDAyLThmMTYtM2QwMWQ4MTA2Y2I1KSIgcng9IjAuNiIgaGVpZ2h0PSIxMiIgd2lkdGg9IjE4IiB5PSIwLjIxIiB4PSItMC4xMiIvPjxwb2x5Z29uIGZpbGw9IiM1MGU2ZmYiIHBvaW50cz0iMTEuODggNC40NiAxMS44OCA3Ljk1IDguODggOS43MSA4Ljg4IDYuMjEgMTEuODggNC40NiIvPjxwb2x5Z29uIGZpbGw9IiNjM2YxZmYiIHBvaW50cz0iMTEuODggNC40NiA4Ljg4IDYuMjIgNS44OCA0LjQ2IDguODggMi43MSAxMS44OCA0LjQ2Ii8+PHBvbHlnb24gZmlsbD0iIzljZWJmZiIgcG9pbnRzPSI4Ljg4IDYuMjIgOC44OCA5LjcxIDUuODggNy45NSA1Ljg4IDQuNDYgOC44OCA2LjIyIi8+PHBvbHlnb24gZmlsbD0iI2MzZjFmZiIgcG9pbnRzPSI1Ljg4IDcuOTUgOC44OCA2LjIxIDguODggOS43MSA1Ljg4IDcuOTUiLz48cG9seWdvbiBmaWxsPSIjOWNlYmZmIiBwb2ludHM9IjExLjg4IDcuOTUgOC44OCA2LjIxIDguODggOS43MSAxMS44OCA3Ljk1Ii8+PHBhdGggZmlsbD0idXJsKCNiZGI0NWEwYi1lYjU4LTQ5NzAtYTYwYS1mYjJjZTMxNGY4NjYpIiBkPSJNMTIuNDksMTUuODRjLTEuNzgtLjI4LTEuODUtMS41Ni0xLjg1LTMuNjNINy4xMWMwLDIuMDctLjA2LDMuMzUtMS44NCwzLjYzYTEsMSwwLDAsMC0uODksMWg5QTEsMSwwLDAsMCwxMi40OSwxNS44NFoiLz48L3N2Zz4=;" vertex="1" parent="1">
          <mxGeometry x="845" y="-543.95" width="90" height="85" as="geometry" />
        </mxCell>
        <mxCell id="j7N0jPnnDhKD8VTJG3_s-19" value="" style="shape=image;verticalLabelPosition=bottom;labelBackgroundColor=default;verticalAlign=top;aspect=fixed;imageAspect=0;editableCssRules=.*;image=data:image/svg+xml,PHN2ZyB4bWxucz0iaHR0cDovL3d3dy53My5vcmcvMjAwMC9zdmciIHZpZXdCb3g9IjAuNDk2OTEyNzQ3NjIxNTM2MjUgMC41MzE1Njk0MjEyOTEzNTEzIDE2Ljk2NzYyNDY2NDMwNjY0IDE2Ljk3MTUxOTQ3MDIxNDg0NCIgaGVpZ2h0PSIxNi45NzE1MTk0NzAyMTQ4NDQiIHdpZHRoPSIxNi45Njc2MjQ2NjQzMDY2NCIgaWQ9ImI3MGFjZjBhLTM0YjQtNGJkZi05MDI0LTc0OTYwNDNmZjkxNSI+PGRlZnM+PHJhZGlhbEdyYWRpZW50IGdyYWRpZW50VW5pdHM9InVzZXJTcGFjZU9uVXNlIiBncmFkaWVudFRyYW5zZm9ybT0idHJhbnNsYXRlKC0yMDA1LjMzIC01MTguODMpIHNjYWxlKDAuMTUpIiByPSI1Ni42NyIgY3k9IjM1MTguODYiIGN4PSIxMzQyOC44MSIgaWQ9ImUyY2Y4NzQ2LWM5YTgtNGVlZS04NmMyLTQ5NTE5ODNjNjAzMiI+PHN0b3Agc3RvcC1jb2xvcj0iIzVlYTBlZiIgb2Zmc2V0PSIwLjE4Ii8+PHN0b3Agc3RvcC1jb2xvcj0iIzAwNzhkNCIgb2Zmc2V0PSIxIi8+PC9yYWRpYWxHcmFkaWVudD48bGluZWFyR3JhZGllbnQgZ3JhZGllbnRVbml0cz0idXNlclNwYWNlT25Vc2UiIHkyPSI3LjUzIiB4Mj0iNC4zNyIgeTE9IjExLjQ4IiB4MT0iNC40IiBpZD0iYmRkMjEzZGQtZDMxMy00NzNjLThmZjQtMDEzM2ZkM2E5MDMzIj48c3RvcCBzdG9wLWNvbG9yPSIjY2NjIiBvZmZzZXQ9IjAiLz48c3RvcCBzdG9wLWNvbG9yPSIjZmNmY2ZjIiBvZmZzZXQ9IjEiLz48L2xpbmVhckdyYWRpZW50PjxsaW5lYXJHcmFkaWVudCBncmFkaWVudFVuaXRzPSJ1c2VyU3BhY2VPblVzZSIgeTI9IjExLjkiIHgyPSIxMC4xMyIgeTE9IjE1LjQ1IiB4MT0iMTAuMTMiIGlkPSJhZmNjNjNjNS0zNjQ5LTQ0NzYtYTc0Mi1iY2I1M2E1NjlmM2MiPjxzdG9wIHN0b3AtY29sb3I9IiNjY2MiIG9mZnNldD0iMCIvPjxzdG9wIHN0b3AtY29sb3I9IiNmY2ZjZmMiIG9mZnNldD0iMSIvPjwvbGluZWFyR3JhZGllbnQ+PGxpbmVhckdyYWRpZW50IGdyYWRpZW50VW5pdHM9InVzZXJTcGFjZU9uVXNlIiB5Mj0iNy4zOCIgeDI9IjE0LjE4IiB5MT0iMTEuMTUiIHgxPSIxNC4xOCIgaWQ9ImJkODczZjBiLTk5NTQtNGFhNS1hM2RmLTlmNGM2NGU4NzI5ZCI+PHN0b3Agc3RvcC1jb2xvcj0iI2NjYyIgb2Zmc2V0PSIwIi8+PHN0b3Agc3RvcC1jb2xvcj0iI2ZjZmNmYyIgb2Zmc2V0PSIxIi8+PC9saW5lYXJHcmFkaWVudD48L2RlZnM+PHRpdGxlPkljb24td2ViLTQxPC90aXRsZT48cGF0aCBmaWxsPSJ1cmwoI2UyY2Y4NzQ2LWM5YTgtNGVlZS04NmMyLTQ5NTE5ODNjNjAzMikiIGQ9Ik0xNC4yMSwxNS43MkE4LjUsOC41LDAsMCwxLDMuNzksMi4yOGwuMDktLjA2YTguNSw4LjUsMCwwLDEsMTAuMzMsMTMuNSIgaWQ9ImVlNzVkZDA2LTFhY2EtNGY3Ni05ZDExLWQwNWEyODQwMjBhZCIvPjxwYXRoIG9wYWNpdHk9IjAuNiIgZmlsbD0iI2ZmZiIgZD0iTTYuNjksNy4yM0ExMywxMywwLDAsMSwxNS42LDMuNjVhOC40Nyw4LjQ3LDAsMCwwLTEuNDktMS40NCwxNC4zNCwxNC4zNCwwLDAsMC00LjY5LDEuMUExMi41NCwxMi41NCwwLDAsMCw1LjM0LDYuMTMsMi43NiwyLjc2LDAsMCwxLDYuNjksNy4yM1oiLz48cGF0aCBvcGFjaXR5PSIwLjYiIGZpbGw9IiNmZmYiIGQ9Ik0yLjQ4LDEwLjY1YTE3Ljg2LDE3Ljg2LDAsMCwwLS44MywyLjYyLDcuODIsNy44MiwwLDAsMCwuNjIuOTJjLjE4LjIzLjM1LjQ0LjU1LjY1QTE3Ljk0LDE3Ljk0LDAsMCwxLDMuOSwxMS4zNywyLjc2LDIuNzYsMCwwLDEsMi40OCwxMC42NVoiLz48cGF0aCBvcGFjaXR5PSIwLjU1IiBmaWxsPSIjZjJmMmYyIiBkPSJNMy40Niw2LjExYTEyLDEyLDAsMCwxLS42OS0yLjk0LDguMTUsOC4xNSwwLDAsMC0xLjEsMS40NUExMi42OSwxMi42OSwwLDAsMCwyLjI0LDcsMi42OSwyLjY5LDAsMCwxLDMuNDYsNi4xMVoiLz48Y2lyY2xlIGZpbGw9InVybCgjYmRkMjEzZGQtZDMxMy00NzNjLThmZjQtMDEzM2ZkM2E5MDMzKSIgcj0iMi43MyIgY3k9IjguNjgiIGN4PSI0LjM4Ii8+PHBhdGggb3BhY2l0eT0iMC41NSIgZmlsbD0iI2YyZjJmMiIgZD0iTTguMzYsMTMuNjdBMS43NywxLjc3LDAsMCwxLDguOSwxMi40YTExLjg4LDExLjg4LDAsMCwxLTIuNTMtMS44NiwyLjc0LDIuNzQsMCwwLDEtMS40OS44MywxMy4xLDEzLjEsMCwwLDAsMS40NSwxLjI4QTEyLjEyLDEyLjEyLDAsMCwwLDguMzgsMTMuOSwxLjc5LDEuNzksMCwwLDEsOC4zNiwxMy42N1oiLz48cGF0aCBvcGFjaXR5PSIwLjU1IiBmaWxsPSIjZjJmMmYyIiBkPSJNMTQuNjYsMTMuODhhMTIsMTIsMCwwLDEtMi43Ni0uMzIuNDEuNDEsMCwwLDEsMCwuMTEsMS43NSwxLjc1LDAsMCwxLS41MSwxLjI0LDEzLjY5LDEzLjY5LDAsMCwwLDMuNDIuMjRBOC4yMSw4LjIxLDAsMCwwLDE2LDEzLjgxLDExLjUsMTEuNSwwLDAsMSwxNC42NiwxMy44OFoiLz48Y2lyY2xlIGZpbGw9InVybCgjYWZjYzYzYzUtMzY0OS00NDc2LWE3NDItYmNiNTNhNTY5ZjNjKSIgcj0iMS43OCIgY3k9IjEzLjY3IiBjeD0iMTAuMTMiLz48cGF0aCBvcGFjaXR5PSIwLjciIGZpbGw9IiNmMmYyZjIiIGQ9Ik0xMi4zMiw4LjkzYTEuODMsMS44MywwLDAsMSwuNjEtMUEyNS41LDI1LjUsMCwwLDEsOC40NywzLjc5YTE2LjkxLDE2LjkxLDAsMCwxLTItMi45Miw3LjY0LDcuNjQsMCwwLDAtMS4wOS40MkExOC4xNCwxOC4xNCwwLDAsMCw3LjUzLDQuNDcsMjYuNDQsMjYuNDQsMCwwLDAsMTIuMzIsOC45M1oiLz48Y2lyY2xlIGZpbGw9InVybCgjYmQ4NzNmMGItOTk1NC00YWE1LWEzZGYtOWY0YzY0ZTg3MjlkKSIgcj0iMS44OSIgY3k9IjkuMjciIGN4PSIxNC4xOCIvPjxwYXRoIG9wYWNpdHk9IjAuNTUiIGZpbGw9IiNmMmYyZjIiIGQ9Ik0xNy4zNSwxMC41NCwxNywxMC4zN2wwLDAtLjMtLjE2LS4wNiwwTDE2LjM4LDEwbC0uMDcsMEwxNiw5LjhhMS43NiwxLjc2LDAsMCwxLS42NC45MmMuMTIuMDguMjUuMTUuMzguMjJsLjA4LjA1LjM1LjE5LDAsMCwuODYuNDVoMGE4LjYzLDguNjMsMCwwLDAsLjI5LTEuMTFaIi8+PGNpcmNsZSBmaWxsPSJ1cmwoI2JkZDIxM2RkLWQzMTMtNDczYy04ZmY0LTAxMzNmZDNhOTAzMykiIHI9IjIuNzMiIGN5PSI4LjY4IiBjeD0iNC4zOCIvPjxjaXJjbGUgZmlsbD0idXJsKCNhZmNjNjNjNS0zNjQ5LTQ0NzYtYTc0Mi1iY2I1M2E1NjlmM2MpIiByPSIxLjc4IiBjeT0iMTMuNjciIGN4PSIxMC4xMyIvPjwvc3ZnPg==;" vertex="1" parent="1">
          <mxGeometry x="445" y="-540" width="90" height="90" as="geometry" />
        </mxCell>
        <mxCell id="j7N0jPnnDhKD8VTJG3_s-21" value="" style="shape=image;verticalLabelPosition=bottom;labelBackgroundColor=default;verticalAlign=top;aspect=fixed;imageAspect=0;editableCssRules=.*;image=data:image/svg+xml,PHN2ZyB4bWxucz0iaHR0cDovL3d3dy53My5vcmcvMjAwMC9zdmciIHZpZXdCb3g9IjAuNDk2OTEyNzQ3NjIxNTM2MjUgMC41MzE1Njk0MjEyOTEzNTEzIDE2Ljk2NzYyNDY2NDMwNjY0IDE2Ljk3MTUxOTQ3MDIxNDg0NCIgaGVpZ2h0PSIxNi45NzE1MTk0NzAyMTQ4NDQiIHdpZHRoPSIxNi45Njc2MjQ2NjQzMDY2NCIgaWQ9ImI3MGFjZjBhLTM0YjQtNGJkZi05MDI0LTc0OTYwNDNmZjkxNSI+PGRlZnM+PHJhZGlhbEdyYWRpZW50IGdyYWRpZW50VW5pdHM9InVzZXJTcGFjZU9uVXNlIiBncmFkaWVudFRyYW5zZm9ybT0idHJhbnNsYXRlKC0yMDA1LjMzIC01MTguODMpIHNjYWxlKDAuMTUpIiByPSI1Ni42NyIgY3k9IjM1MTguODYiIGN4PSIxMzQyOC44MSIgaWQ9ImUyY2Y4NzQ2LWM5YTgtNGVlZS04NmMyLTQ5NTE5ODNjNjAzMiI+PHN0b3Agc3RvcC1jb2xvcj0iIzVlYTBlZiIgb2Zmc2V0PSIwLjE4Ii8+PHN0b3Agc3RvcC1jb2xvcj0iIzAwNzhkNCIgb2Zmc2V0PSIxIi8+PC9yYWRpYWxHcmFkaWVudD48bGluZWFyR3JhZGllbnQgZ3JhZGllbnRVbml0cz0idXNlclNwYWNlT25Vc2UiIHkyPSI3LjUzIiB4Mj0iNC4zNyIgeTE9IjExLjQ4IiB4MT0iNC40IiBpZD0iYmRkMjEzZGQtZDMxMy00NzNjLThmZjQtMDEzM2ZkM2E5MDMzIj48c3RvcCBzdG9wLWNvbG9yPSIjY2NjIiBvZmZzZXQ9IjAiLz48c3RvcCBzdG9wLWNvbG9yPSIjZmNmY2ZjIiBvZmZzZXQ9IjEiLz48L2xpbmVhckdyYWRpZW50PjxsaW5lYXJHcmFkaWVudCBncmFkaWVudFVuaXRzPSJ1c2VyU3BhY2VPblVzZSIgeTI9IjExLjkiIHgyPSIxMC4xMyIgeTE9IjE1LjQ1IiB4MT0iMTAuMTMiIGlkPSJhZmNjNjNjNS0zNjQ5LTQ0NzYtYTc0Mi1iY2I1M2E1NjlmM2MiPjxzdG9wIHN0b3AtY29sb3I9IiNjY2MiIG9mZnNldD0iMCIvPjxzdG9wIHN0b3AtY29sb3I9IiNmY2ZjZmMiIG9mZnNldD0iMSIvPjwvbGluZWFyR3JhZGllbnQ+PGxpbmVhckdyYWRpZW50IGdyYWRpZW50VW5pdHM9InVzZXJTcGFjZU9uVXNlIiB5Mj0iNy4zOCIgeDI9IjE0LjE4IiB5MT0iMTEuMTUiIHgxPSIxNC4xOCIgaWQ9ImJkODczZjBiLTk5NTQtNGFhNS1hM2RmLTlmNGM2NGU4NzI5ZCI+PHN0b3Agc3RvcC1jb2xvcj0iI2NjYyIgb2Zmc2V0PSIwIi8+PHN0b3Agc3RvcC1jb2xvcj0iI2ZjZmNmYyIgb2Zmc2V0PSIxIi8+PC9saW5lYXJHcmFkaWVudD48L2RlZnM+PHRpdGxlPkljb24td2ViLTQxPC90aXRsZT48cGF0aCBmaWxsPSJ1cmwoI2UyY2Y4NzQ2LWM5YTgtNGVlZS04NmMyLTQ5NTE5ODNjNjAzMikiIGQ9Ik0xNC4yMSwxNS43MkE4LjUsOC41LDAsMCwxLDMuNzksMi4yOGwuMDktLjA2YTguNSw4LjUsMCwwLDEsMTAuMzMsMTMuNSIgaWQ9ImVlNzVkZDA2LTFhY2EtNGY3Ni05ZDExLWQwNWEyODQwMjBhZCIvPjxwYXRoIG9wYWNpdHk9IjAuNiIgZmlsbD0iI2ZmZiIgZD0iTTYuNjksNy4yM0ExMywxMywwLDAsMSwxNS42LDMuNjVhOC40Nyw4LjQ3LDAsMCwwLTEuNDktMS40NCwxNC4zNCwxNC4zNCwwLDAsMC00LjY5LDEuMUExMi41NCwxMi41NCwwLDAsMCw1LjM0LDYuMTMsMi43NiwyLjc2LDAsMCwxLDYuNjksNy4yM1oiLz48cGF0aCBvcGFjaXR5PSIwLjYiIGZpbGw9IiNmZmYiIGQ9Ik0yLjQ4LDEwLjY1YTE3Ljg2LDE3Ljg2LDAsMCwwLS44MywyLjYyLDcuODIsNy44MiwwLDAsMCwuNjIuOTJjLjE4LjIzLjM1LjQ0LjU1LjY1QTE3Ljk0LDE3Ljk0LDAsMCwxLDMuOSwxMS4zNywyLjc2LDIuNzYsMCwwLDEsMi40OCwxMC42NVoiLz48cGF0aCBvcGFjaXR5PSIwLjU1IiBmaWxsPSIjZjJmMmYyIiBkPSJNMy40Niw2LjExYTEyLDEyLDAsMCwxLS42OS0yLjk0LDguMTUsOC4xNSwwLDAsMC0xLjEsMS40NUExMi42OSwxMi42OSwwLDAsMCwyLjI0LDcsMi42OSwyLjY5LDAsMCwxLDMuNDYsNi4xMVoiLz48Y2lyY2xlIGZpbGw9InVybCgjYmRkMjEzZGQtZDMxMy00NzNjLThmZjQtMDEzM2ZkM2E5MDMzKSIgcj0iMi43MyIgY3k9IjguNjgiIGN4PSI0LjM4Ii8+PHBhdGggb3BhY2l0eT0iMC41NSIgZmlsbD0iI2YyZjJmMiIgZD0iTTguMzYsMTMuNjdBMS43NywxLjc3LDAsMCwxLDguOSwxMi40YTExLjg4LDExLjg4LDAsMCwxLTIuNTMtMS44NiwyLjc0LDIuNzQsMCwwLDEtMS40OS44MywxMy4xLDEzLjEsMCwwLDAsMS40NSwxLjI4QTEyLjEyLDEyLjEyLDAsMCwwLDguMzgsMTMuOSwxLjc5LDEuNzksMCwwLDEsOC4zNiwxMy42N1oiLz48cGF0aCBvcGFjaXR5PSIwLjU1IiBmaWxsPSIjZjJmMmYyIiBkPSJNMTQuNjYsMTMuODhhMTIsMTIsMCwwLDEtMi43Ni0uMzIuNDEuNDEsMCwwLDEsMCwuMTEsMS43NSwxLjc1LDAsMCwxLS41MSwxLjI0LDEzLjY5LDEzLjY5LDAsMCwwLDMuNDIuMjRBOC4yMSw4LjIxLDAsMCwwLDE2LDEzLjgxLDExLjUsMTEuNSwwLDAsMSwxNC42NiwxMy44OFoiLz48Y2lyY2xlIGZpbGw9InVybCgjYWZjYzYzYzUtMzY0OS00NDc2LWE3NDItYmNiNTNhNTY5ZjNjKSIgcj0iMS43OCIgY3k9IjEzLjY3IiBjeD0iMTAuMTMiLz48cGF0aCBvcGFjaXR5PSIwLjciIGZpbGw9IiNmMmYyZjIiIGQ9Ik0xMi4zMiw4LjkzYTEuODMsMS44MywwLDAsMSwuNjEtMUEyNS41LDI1LjUsMCwwLDEsOC40NywzLjc5YTE2LjkxLDE2LjkxLDAsMCwxLTItMi45Miw3LjY0LDcuNjQsMCwwLDAtMS4wOS40MkExOC4xNCwxOC4xNCwwLDAsMCw3LjUzLDQuNDcsMjYuNDQsMjYuNDQsMCwwLDAsMTIuMzIsOC45M1oiLz48Y2lyY2xlIGZpbGw9InVybCgjYmQ4NzNmMGItOTk1NC00YWE1LWEzZGYtOWY0YzY0ZTg3MjlkKSIgcj0iMS44OSIgY3k9IjkuMjciIGN4PSIxNC4xOCIvPjxwYXRoIG9wYWNpdHk9IjAuNTUiIGZpbGw9IiNmMmYyZjIiIGQ9Ik0xNy4zNSwxMC41NCwxNywxMC4zN2wwLDAtLjMtLjE2LS4wNiwwTDE2LjM4LDEwbC0uMDcsMEwxNiw5LjhhMS43NiwxLjc2LDAsMCwxLS42NC45MmMuMTIuMDguMjUuMTUuMzguMjJsLjA4LjA1LjM1LjE5LDAsMCwuODYuNDVoMGE4LjYzLDguNjMsMCwwLDAsLjI5LTEuMTFaIi8+PGNpcmNsZSBmaWxsPSJ1cmwoI2JkZDIxM2RkLWQzMTMtNDczYy04ZmY0LTAxMzNmZDNhOTAzMykiIHI9IjIuNzMiIGN5PSI4LjY4IiBjeD0iNC4zOCIvPjxjaXJjbGUgZmlsbD0idXJsKCNhZmNjNjNjNS0zNjQ5LTQ0NzYtYTc0Mi1iY2I1M2E1NjlmM2MpIiByPSIxLjc4IiBjeT0iMTMuNjciIGN4PSIxMC4xMyIvPjwvc3ZnPg==;" vertex="1" parent="1">
          <mxGeometry x="445" y="-320" width="90" height="90" as="geometry" />
        </mxCell>
        <mxCell id="j7N0jPnnDhKD8VTJG3_s-22" value="&lt;h2&gt;Azure &lt;br&gt;App Service&lt;br&gt;&lt;/h2&gt;" style="text;html=1;align=center;verticalAlign=middle;resizable=0;points=[];autosize=1;strokeColor=none;fillColor=none;" vertex="1" parent="1">
          <mxGeometry x="425" y="-609" width="130" height="90" as="geometry" />
        </mxCell>
        <mxCell id="j7N0jPnnDhKD8VTJG3_s-24" value="" style="shape=image;verticalLabelPosition=bottom;labelBackgroundColor=default;verticalAlign=top;aspect=fixed;imageAspect=0;editableCssRules=.*;image=data:image/svg+xml,PHN2ZyB4bWxucz0iaHR0cDovL3d3dy53My5vcmcvMjAwMC9zdmciIHZpZXdCb3g9IjAuNzkwMDAwMDIxNDU3NjcyMSAwLjg4OTk5OTk4NTY5NDg4NTMgMTYuOTk5OTk4MDkyNjUxMzY3IDE3IiBoZWlnaHQ9IjE3IiB3aWR0aD0iMTYuOTk5OTk4MDkyNjUxMzY3IiBpZD0iYTIxNTdmODgtZjY0MS00ZjdkLWFiYzctZjQwY2NmNWNmNjlhIj48ZGVmcz48bGluZWFyR3JhZGllbnQgZ3JhZGllbnRVbml0cz0idXNlclNwYWNlT25Vc2UiIHkyPSI4LjUyIiB4Mj0iMTIuNzQiIHkxPSIxNS4yOCIgeDE9IjEyLjc0IiBpZD0iYjgxNmM4ZWEtMDVhMi00MWZiLWJhOTktOTZkODQ1OTljOWY0Ij48c3RvcCBzdG9wLWNvbG9yPSIjMDA3OGQ0IiBvZmZzZXQ9IjAiLz48c3RvcCBzdG9wLWNvbG9yPSIjNWVhMGVmIiBvZmZzZXQ9IjAuODIiLz48L2xpbmVhckdyYWRpZW50PjxsaW5lYXJHcmFkaWVudCBncmFkaWVudFVuaXRzPSJ1c2VyU3BhY2VPblVzZSIgeTI9IjE1LjI4IiB4Mj0iMTIuNzQiIHkxPSIxNy44OSIgeDE9IjEyLjc0IiBpZD0iYWIzNzNkODgtNDFhZi00ZmMzLWIxNzItZDQ0ODlmOTEwN2EwIj48c3RvcCBzdG9wLWNvbG9yPSIjY2NjIiBvZmZzZXQ9IjAuMTUiLz48c3RvcCBzdG9wLWNvbG9yPSIjNzA3MDcwIiBvZmZzZXQ9IjEiLz48L2xpbmVhckdyYWRpZW50PjwvZGVmcz48dGl0bGU+SWNvbi1jb21wdXRlLTM0PC90aXRsZT48cmVjdCBmaWxsPSIjMDA1YmExIiByeD0iMC4zNCIgaGVpZ2h0PSI2Ljc1IiB3aWR0aD0iMTAuMTEiIHk9IjAuODkiIHg9IjAuNzkiLz48cG9seWdvbiBmaWxsPSIjNTBlNmZmIiBwb2ludHM9IjcuNTMgMy4yOCA3LjUzIDUuMjUgNS44NSA2LjIzIDUuODUgNC4yNyA3LjUzIDMuMjgiLz48cG9seWdvbiBmaWxsPSIjYzNmMWZmIiBwb2ludHM9IjcuNTMgMy4yOCA1Ljg1IDQuMjcgNC4xNiAzLjI4IDUuODUgMi4yOSA3LjUzIDMuMjgiLz48cG9seWdvbiBmaWxsPSIjOWNlYmZmIiBwb2ludHM9IjUuODUgNC4yNyA1Ljg1IDYuMjMgNC4xNiA1LjI1IDQuMTYgMy4yOCA1Ljg1IDQuMjciLz48cmVjdCBmaWxsPSIjMDA3OGQ0IiByeD0iMC4zNCIgaGVpZ2h0PSI2Ljc1IiB3aWR0aD0iMTAuMTEiIHk9IjQuNzYiIHg9IjQuNzYiLz48cG9seWdvbiBmaWxsPSIjNTBlNmZmIiBwb2ludHM9IjExLjUgNy4xNiAxMS41IDkuMTIgOS44MiAxMC4xMSA5LjgyIDguMTQgMTEuNSA3LjE2Ii8+PHBvbHlnb24gZmlsbD0iI2MzZjFmZiIgcG9pbnRzPSIxMS41IDcuMTYgOS44MiA4LjE0IDguMTMgNy4xNiA5LjgyIDYuMTcgMTEuNSA3LjE2Ii8+PHBvbHlnb24gZmlsbD0iIzljZWJmZiIgcG9pbnRzPSI5LjgyIDguMTQgOS44MiAxMC4xMSA4LjEzIDkuMTIgOC4xMyA3LjE2IDkuODIgOC4xNCIvPjxyZWN0IGZpbGw9InVybCgjYjgxNmM4ZWEtMDVhMi00MWZiLWJhOTktOTZkODQ1OTljOWY0KSIgcng9IjAuMzQiIGhlaWdodD0iNi43NSIgd2lkdGg9IjEwLjExIiB5PSI4LjUyIiB4PSI3LjY4Ii8+PHBvbHlnb24gZmlsbD0iIzUwZTZmZiIgcG9pbnRzPSIxNC40MiAxMC45MiAxNC40MiAxMi44OCAxMi43NCAxMy44NyAxMi43NCAxMS45IDE0LjQyIDEwLjkyIi8+PHBvbHlnb24gZmlsbD0iI2MzZjFmZiIgcG9pbnRzPSIxNC40MiAxMC45MiAxMi43NCAxMS45MSAxMS4wNSAxMC45MiAxMi43NCA5LjkzIDE0LjQyIDEwLjkyIi8+PHBvbHlnb24gZmlsbD0iIzljZWJmZiIgcG9pbnRzPSIxMi43NCAxMS45MSAxMi43NCAxMy44NyAxMS4wNSAxMi44OCAxMS4wNSAxMC45MiAxMi43NCAxMS45MSIvPjxwb2x5Z29uIGZpbGw9IiNjM2YxZmYiIHBvaW50cz0iMTEuMDUgMTIuODggMTIuNzQgMTEuOSAxMi43NCAxMy44NyAxMS4wNSAxMi44OCIvPjxwb2x5Z29uIGZpbGw9IiM5Y2ViZmYiIHBvaW50cz0iMTQuNDIgMTIuODggMTIuNzQgMTEuOSAxMi43NCAxMy44NyAxNC40MiAxMi44OCIvPjxwYXRoIGZpbGw9InVybCgjYWIzNzNkODgtNDFhZi00ZmMzLWIxNzItZDQ0ODlmOTEwN2EwKSIgZD0iTTE0Ljc2LDE3LjMyYy0xLS4xNi0xLS44OC0xLTJoLTJjMCwxLjE2LDAsMS44OC0xLDJhLjU5LjU5LDAsMCwwLS41LjU3aDVBLjU5LjU5LDAsMCwwLDE0Ljc2LDE3LjMyWiIvPjwvc3ZnPg==;" vertex="1" parent="1">
          <mxGeometry x="645" y="-541" width="90" height="90" as="geometry" />
        </mxCell>
        <mxCell id="j7N0jPnnDhKD8VTJG3_s-27" value="" style="endArrow=classic;html=1;rounded=0;strokeWidth=3;entryX=0;entryY=0.5;entryDx=0;entryDy=0;" edge="1" parent="1">
          <mxGeometry width="50" height="50" relative="1" as="geometry">
            <mxPoint x="742" y="-496" as="sourcePoint" />
            <mxPoint x="837" y="-496.5" as="targetPoint" />
            <Array as="points" />
          </mxGeometry>
        </mxCell>
        <mxCell id="j7N0jPnnDhKD8VTJG3_s-28" value="" style="endArrow=classic;html=1;rounded=0;strokeWidth=3;" edge="1" parent="1">
          <mxGeometry width="50" height="50" relative="1" as="geometry">
            <mxPoint x="542" y="-496" as="sourcePoint" />
            <mxPoint x="600" y="-496" as="targetPoint" />
            <Array as="points" />
          </mxGeometry>
        </mxCell>
        <mxCell id="j7N0jPnnDhKD8VTJG3_s-29" value="&lt;h2&gt;Auto Scale&lt;/h2&gt;" style="text;html=1;align=center;verticalAlign=middle;resizable=0;points=[];autosize=1;strokeColor=none;fillColor=none;" vertex="1" parent="1">
          <mxGeometry x="626" y="-588.05" width="120" height="60" as="geometry" />
        </mxCell>
        <mxCell id="j7N0jPnnDhKD8VTJG3_s-30" value="&lt;h2&gt;VM&lt;/h2&gt;" style="text;html=1;align=center;verticalAlign=middle;resizable=0;points=[];autosize=1;strokeColor=none;fillColor=none;" vertex="1" parent="1">
          <mxGeometry x="864" y="-591" width="50" height="60" as="geometry" />
        </mxCell>
        <mxCell id="j7N0jPnnDhKD8VTJG3_s-31" value="" style="shape=image;verticalLabelPosition=bottom;labelBackgroundColor=default;verticalAlign=top;aspect=fixed;imageAspect=0;editableCssRules=.*;image=data:image/svg+xml,PHN2ZyB4bWxucz0iaHR0cDovL3d3dy53My5vcmcvMjAwMC9zdmciIHZpZXdCb3g9Ii0wLjExOTk5OTk5NzMxNzc5MDk5IDAuMjA5OTk5OTkzNDQzNDg5MDcgMTggMTYuNjMwMDAxMDY4MTE1MjM0IiBoZWlnaHQ9IjE2LjYzMDAwMTA2ODExNTIzNCIgd2lkdGg9IjE4IiBpZD0iZmQ0NTRmMWMtNTUwNi00NGI4LTg3NGUtODgxNGI4YjJmNzBiIj48ZGVmcz48bGluZWFyR3JhZGllbnQgZ3JhZGllbnRVbml0cz0idXNlclNwYWNlT25Vc2UiIHkyPSIwLjIxIiB4Mj0iOC44OCIgeTE9IjEyLjIxIiB4MT0iOC44OCIgaWQ9ImYzNGQ5NTY5LTJiZDAtNDAwMi04ZjE2LTNkMDFkODEwNmNiNSI+PHN0b3Agc3RvcC1jb2xvcj0iIzAwNzhkNCIgb2Zmc2V0PSIwIi8+PHN0b3Agc3RvcC1jb2xvcj0iIzVlYTBlZiIgb2Zmc2V0PSIwLjgyIi8+PC9saW5lYXJHcmFkaWVudD48bGluZWFyR3JhZGllbnQgZ3JhZGllbnRVbml0cz0idXNlclNwYWNlT25Vc2UiIHkyPSIxMi4yMSIgeDI9IjguODgiIHkxPSIxNi44NCIgeDE9IjguODgiIGlkPSJiZGI0NWEwYi1lYjU4LTQ5NzAtYTYwYS1mYjJjZTMxNGY4NjYiPjxzdG9wIHN0b3AtY29sb3I9IiNjY2MiIG9mZnNldD0iMC4xNSIvPjxzdG9wIHN0b3AtY29sb3I9IiM3MDcwNzAiIG9mZnNldD0iMSIvPjwvbGluZWFyR3JhZGllbnQ+PC9kZWZzPjx0aXRsZT5JY29uLWNvbXB1dGUtMjE8L3RpdGxlPjxyZWN0IGZpbGw9InVybCgjZjM0ZDk1NjktMmJkMC00MDAyLThmMTYtM2QwMWQ4MTA2Y2I1KSIgcng9IjAuNiIgaGVpZ2h0PSIxMiIgd2lkdGg9IjE4IiB5PSIwLjIxIiB4PSItMC4xMiIvPjxwb2x5Z29uIGZpbGw9IiM1MGU2ZmYiIHBvaW50cz0iMTEuODggNC40NiAxMS44OCA3Ljk1IDguODggOS43MSA4Ljg4IDYuMjEgMTEuODggNC40NiIvPjxwb2x5Z29uIGZpbGw9IiNjM2YxZmYiIHBvaW50cz0iMTEuODggNC40NiA4Ljg4IDYuMjIgNS44OCA0LjQ2IDguODggMi43MSAxMS44OCA0LjQ2Ii8+PHBvbHlnb24gZmlsbD0iIzljZWJmZiIgcG9pbnRzPSI4Ljg4IDYuMjIgOC44OCA5LjcxIDUuODggNy45NSA1Ljg4IDQuNDYgOC44OCA2LjIyIi8+PHBvbHlnb24gZmlsbD0iI2MzZjFmZiIgcG9pbnRzPSI1Ljg4IDcuOTUgOC44OCA2LjIxIDguODggOS43MSA1Ljg4IDcuOTUiLz48cG9seWdvbiBmaWxsPSIjOWNlYmZmIiBwb2ludHM9IjExLjg4IDcuOTUgOC44OCA2LjIxIDguODggOS43MSAxMS44OCA3Ljk1Ii8+PHBhdGggZmlsbD0idXJsKCNiZGI0NWEwYi1lYjU4LTQ5NzAtYTYwYS1mYjJjZTMxNGY4NjYpIiBkPSJNMTIuNDksMTUuODRjLTEuNzgtLjI4LTEuODUtMS41Ni0xLjg1LTMuNjNINy4xMWMwLDIuMDctLjA2LDMuMzUtMS44NCwzLjYzYTEsMSwwLDAsMC0uODksMWg5QTEsMSwwLDAsMCwxMi40OSwxNS44NFoiLz48L3N2Zz4=;" vertex="1" parent="1">
          <mxGeometry x="846" y="-321.48" width="90" height="85" as="geometry" />
        </mxCell>
        <mxCell id="j7N0jPnnDhKD8VTJG3_s-32" value="" style="shape=image;verticalLabelPosition=bottom;labelBackgroundColor=default;verticalAlign=top;aspect=fixed;imageAspect=0;editableCssRules=.*;image=data:image/svg+xml,PHN2ZyB4bWxucz0iaHR0cDovL3d3dy53My5vcmcvMjAwMC9zdmciIHZpZXdCb3g9IjAuNzkwMDAwMDIxNDU3NjcyMSAwLjg4OTk5OTk4NTY5NDg4NTMgMTYuOTk5OTk4MDkyNjUxMzY3IDE3IiBoZWlnaHQ9IjE3IiB3aWR0aD0iMTYuOTk5OTk4MDkyNjUxMzY3IiBpZD0iYTIxNTdmODgtZjY0MS00ZjdkLWFiYzctZjQwY2NmNWNmNjlhIj48ZGVmcz48bGluZWFyR3JhZGllbnQgZ3JhZGllbnRVbml0cz0idXNlclNwYWNlT25Vc2UiIHkyPSI4LjUyIiB4Mj0iMTIuNzQiIHkxPSIxNS4yOCIgeDE9IjEyLjc0IiBpZD0iYjgxNmM4ZWEtMDVhMi00MWZiLWJhOTktOTZkODQ1OTljOWY0Ij48c3RvcCBzdG9wLWNvbG9yPSIjMDA3OGQ0IiBvZmZzZXQ9IjAiLz48c3RvcCBzdG9wLWNvbG9yPSIjNWVhMGVmIiBvZmZzZXQ9IjAuODIiLz48L2xpbmVhckdyYWRpZW50PjxsaW5lYXJHcmFkaWVudCBncmFkaWVudFVuaXRzPSJ1c2VyU3BhY2VPblVzZSIgeTI9IjE1LjI4IiB4Mj0iMTIuNzQiIHkxPSIxNy44OSIgeDE9IjEyLjc0IiBpZD0iYWIzNzNkODgtNDFhZi00ZmMzLWIxNzItZDQ0ODlmOTEwN2EwIj48c3RvcCBzdG9wLWNvbG9yPSIjY2NjIiBvZmZzZXQ9IjAuMTUiLz48c3RvcCBzdG9wLWNvbG9yPSIjNzA3MDcwIiBvZmZzZXQ9IjEiLz48L2xpbmVhckdyYWRpZW50PjwvZGVmcz48dGl0bGU+SWNvbi1jb21wdXRlLTM0PC90aXRsZT48cmVjdCBmaWxsPSIjMDA1YmExIiByeD0iMC4zNCIgaGVpZ2h0PSI2Ljc1IiB3aWR0aD0iMTAuMTEiIHk9IjAuODkiIHg9IjAuNzkiLz48cG9seWdvbiBmaWxsPSIjNTBlNmZmIiBwb2ludHM9IjcuNTMgMy4yOCA3LjUzIDUuMjUgNS44NSA2LjIzIDUuODUgNC4yNyA3LjUzIDMuMjgiLz48cG9seWdvbiBmaWxsPSIjYzNmMWZmIiBwb2ludHM9IjcuNTMgMy4yOCA1Ljg1IDQuMjcgNC4xNiAzLjI4IDUuODUgMi4yOSA3LjUzIDMuMjgiLz48cG9seWdvbiBmaWxsPSIjOWNlYmZmIiBwb2ludHM9IjUuODUgNC4yNyA1Ljg1IDYuMjMgNC4xNiA1LjI1IDQuMTYgMy4yOCA1Ljg1IDQuMjciLz48cmVjdCBmaWxsPSIjMDA3OGQ0IiByeD0iMC4zNCIgaGVpZ2h0PSI2Ljc1IiB3aWR0aD0iMTAuMTEiIHk9IjQuNzYiIHg9IjQuNzYiLz48cG9seWdvbiBmaWxsPSIjNTBlNmZmIiBwb2ludHM9IjExLjUgNy4xNiAxMS41IDkuMTIgOS44MiAxMC4xMSA5LjgyIDguMTQgMTEuNSA3LjE2Ii8+PHBvbHlnb24gZmlsbD0iI2MzZjFmZiIgcG9pbnRzPSIxMS41IDcuMTYgOS44MiA4LjE0IDguMTMgNy4xNiA5LjgyIDYuMTcgMTEuNSA3LjE2Ii8+PHBvbHlnb24gZmlsbD0iIzljZWJmZiIgcG9pbnRzPSI5LjgyIDguMTQgOS44MiAxMC4xMSA4LjEzIDkuMTIgOC4xMyA3LjE2IDkuODIgOC4xNCIvPjxyZWN0IGZpbGw9InVybCgjYjgxNmM4ZWEtMDVhMi00MWZiLWJhOTktOTZkODQ1OTljOWY0KSIgcng9IjAuMzQiIGhlaWdodD0iNi43NSIgd2lkdGg9IjEwLjExIiB5PSI4LjUyIiB4PSI3LjY4Ii8+PHBvbHlnb24gZmlsbD0iIzUwZTZmZiIgcG9pbnRzPSIxNC40MiAxMC45MiAxNC40MiAxMi44OCAxMi43NCAxMy44NyAxMi43NCAxMS45IDE0LjQyIDEwLjkyIi8+PHBvbHlnb24gZmlsbD0iI2MzZjFmZiIgcG9pbnRzPSIxNC40MiAxMC45MiAxMi43NCAxMS45MSAxMS4wNSAxMC45MiAxMi43NCA5LjkzIDE0LjQyIDEwLjkyIi8+PHBvbHlnb24gZmlsbD0iIzljZWJmZiIgcG9pbnRzPSIxMi43NCAxMS45MSAxMi43NCAxMy44NyAxMS4wNSAxMi44OCAxMS4wNSAxMC45MiAxMi43NCAxMS45MSIvPjxwb2x5Z29uIGZpbGw9IiNjM2YxZmYiIHBvaW50cz0iMTEuMDUgMTIuODggMTIuNzQgMTEuOSAxMi43NCAxMy44NyAxMS4wNSAxMi44OCIvPjxwb2x5Z29uIGZpbGw9IiM5Y2ViZmYiIHBvaW50cz0iMTQuNDIgMTIuODggMTIuNzQgMTEuOSAxMi43NCAxMy44NyAxNC40MiAxMi44OCIvPjxwYXRoIGZpbGw9InVybCgjYWIzNzNkODgtNDFhZi00ZmMzLWIxNzItZDQ0ODlmOTEwN2EwKSIgZD0iTTE0Ljc2LDE3LjMyYy0xLS4xNi0xLS44OC0xLTJoLTJjMCwxLjE2LDAsMS44OC0xLDJhLjU5LjU5LDAsMCwwLS41LjU3aDVBLjU5LjU5LDAsMCwwLDE0Ljc2LDE3LjMyWiIvPjwvc3ZnPg==;" vertex="1" parent="1">
          <mxGeometry x="646" y="-318.53" width="90" height="90" as="geometry" />
        </mxCell>
        <mxCell id="j7N0jPnnDhKD8VTJG3_s-33" value="" style="endArrow=classic;html=1;rounded=0;strokeWidth=3;entryX=0;entryY=0.5;entryDx=0;entryDy=0;" edge="1" parent="1">
          <mxGeometry width="50" height="50" relative="1" as="geometry">
            <mxPoint x="743" y="-273.53" as="sourcePoint" />
            <mxPoint x="838" y="-274.03" as="targetPoint" />
            <Array as="points" />
          </mxGeometry>
        </mxCell>
        <mxCell id="j7N0jPnnDhKD8VTJG3_s-34" value="" style="endArrow=classic;html=1;rounded=0;strokeWidth=3;" edge="1" parent="1">
          <mxGeometry width="50" height="50" relative="1" as="geometry">
            <mxPoint x="543" y="-273.53" as="sourcePoint" />
            <mxPoint x="600" y="-274" as="targetPoint" />
            <Array as="points" />
          </mxGeometry>
        </mxCell>
        <mxCell id="j7N0jPnnDhKD8VTJG3_s-43" value="&lt;h2&gt;Servicio PaaS&lt;/h2&gt;" style="text;html=1;align=center;verticalAlign=middle;resizable=0;points=[];autosize=1;strokeColor=none;fillColor=none;" vertex="1" parent="1">
          <mxGeometry x="418" y="-466" width="140" height="60" as="geometry" />
        </mxCell>
        <mxCell id="j7N0jPnnDhKD8VTJG3_s-44" value="&lt;h2&gt;Incorporado en App Service&lt;/h2&gt;" style="text;html=1;align=center;verticalAlign=middle;resizable=0;points=[];autosize=1;strokeColor=none;fillColor=none;" vertex="1" parent="1">
          <mxGeometry x="650" y="-465.99999999999994" width="260" height="60" as="geometry" />
        </mxCell>
        <mxCell id="j7N0jPnnDhKD8VTJG3_s-45" value="&lt;h2&gt;Azure &lt;br&gt;App Service&lt;br&gt;&lt;/h2&gt;" style="text;html=1;align=center;verticalAlign=middle;resizable=0;points=[];autosize=1;strokeColor=none;fillColor=none;" vertex="1" parent="1">
          <mxGeometry x="425" y="-387.04999999999995" width="130" height="90" as="geometry" />
        </mxCell>
        <mxCell id="j7N0jPnnDhKD8VTJG3_s-46" value="&lt;h2&gt;Servicio PaaS&lt;/h2&gt;" style="text;html=1;align=center;verticalAlign=middle;resizable=0;points=[];autosize=1;strokeColor=none;fillColor=none;" vertex="1" parent="1">
          <mxGeometry x="418" y="-246" width="140" height="60" as="geometry" />
        </mxCell>
        <mxCell id="j7N0jPnnDhKD8VTJG3_s-49" value="&lt;h2&gt;Auto Scale&lt;/h2&gt;" style="text;html=1;align=center;verticalAlign=middle;resizable=0;points=[];autosize=1;strokeColor=none;fillColor=none;" vertex="1" parent="1">
          <mxGeometry x="626" y="-364.04999999999995" width="120" height="60" as="geometry" />
        </mxCell>
        <mxCell id="j7N0jPnnDhKD8VTJG3_s-50" value="&lt;h2&gt;VM&lt;/h2&gt;" style="text;html=1;align=center;verticalAlign=middle;resizable=0;points=[];autosize=1;strokeColor=none;fillColor=none;" vertex="1" parent="1">
          <mxGeometry x="864" y="-366" width="50" height="60" as="geometry" />
        </mxCell>
        <mxCell id="j7N0jPnnDhKD8VTJG3_s-51" value="&lt;h2&gt;Incorporado en App Service&lt;/h2&gt;" style="text;html=1;align=center;verticalAlign=middle;resizable=0;points=[];autosize=1;strokeColor=none;fillColor=none;" vertex="1" parent="1">
          <mxGeometry x="650" y="-244.99999999999994" width="260" height="60" as="geometry" />
        </mxCell>
        <mxCell id="j7N0jPnnDhKD8VTJG3_s-87" value="" style="rounded=0;whiteSpace=wrap;html=1;dashed=1;strokeWidth=2;strokeColor=#00FF00;flipH=1;movable=1;resizable=1;rotatable=1;deletable=1;editable=1;locked=0;connectable=1;" vertex="1" parent="1">
          <mxGeometry x="420" y="382" width="540" height="190" as="geometry" />
        </mxCell>
        <mxCell id="j7N0jPnnDhKD8VTJG3_s-88" value="" style="rounded=1;whiteSpace=wrap;html=1;dashed=1;" vertex="1" parent="1">
          <mxGeometry x="614" y="396" width="330" height="160" as="geometry" />
        </mxCell>
        <mxCell id="j7N0jPnnDhKD8VTJG3_s-89" value="" style="rounded=0;whiteSpace=wrap;html=1;dashed=1;strokeWidth=2;strokeColor=#00FF00;movable=1;resizable=1;rotatable=1;deletable=1;editable=1;locked=0;connectable=1;" vertex="1" parent="1">
          <mxGeometry x="420" y="161" width="540" height="190" as="geometry" />
        </mxCell>
        <mxCell id="j7N0jPnnDhKD8VTJG3_s-90" value="" style="rounded=1;whiteSpace=wrap;html=1;dashed=1;" vertex="1" parent="1">
          <mxGeometry x="614" y="172" width="330" height="160" as="geometry" />
        </mxCell>
        <mxCell id="j7N0jPnnDhKD8VTJG3_s-91" value="&lt;h2&gt;&lt;font style=&quot;color: rgb(0, 102, 204);&quot;&gt;Red Virtual 2&lt;/font&gt;&lt;/h2&gt;" style="text;html=1;align=center;verticalAlign=middle;resizable=0;points=[];autosize=1;strokeColor=none;fillColor=none;" vertex="1" parent="1">
          <mxGeometry x="210" y="160.04999999999995" width="130" height="60" as="geometry" />
        </mxCell>
        <mxCell id="j7N0jPnnDhKD8VTJG3_s-92" value="" style="endArrow=classic;html=1;rounded=0;strokeWidth=3;entryX=0;entryY=0.5;entryDx=0;entryDy=0;exitX=0.5;exitY=1;exitDx=0;exitDy=0;" edge="1" parent="1" source="j7N0jPnnDhKD8VTJG3_s-98" target="j7N0jPnnDhKD8VTJG3_s-103">
          <mxGeometry width="50" height="50" relative="1" as="geometry">
            <mxPoint x="570" y="410" as="sourcePoint" />
            <mxPoint x="570" y="461" as="targetPoint" />
            <Array as="points">
              <mxPoint x="185" y="477" />
            </Array>
          </mxGeometry>
        </mxCell>
        <mxCell id="j7N0jPnnDhKD8VTJG3_s-93" value="&lt;h3&gt;&lt;font style=&quot;color: rgb(0, 255, 0);&quot;&gt;Zona de disponibilidad 1&lt;/font&gt;&lt;/h3&gt;" style="text;html=1;align=center;verticalAlign=middle;resizable=0;points=[];autosize=1;strokeColor=none;fillColor=none;" vertex="1" parent="1">
          <mxGeometry x="412" y="309" width="190" height="60" as="geometry" />
        </mxCell>
        <mxCell id="j7N0jPnnDhKD8VTJG3_s-94" value="&lt;h3&gt;&lt;font style=&quot;color: rgb(0, 255, 0);&quot;&gt;Zona de disponibilidad 2&lt;/font&gt;&lt;/h3&gt;" style="text;html=1;align=center;verticalAlign=middle;resizable=0;points=[];autosize=1;strokeColor=none;fillColor=none;" vertex="1" parent="1">
          <mxGeometry x="412" y="528.5" width="190" height="60" as="geometry" />
        </mxCell>
        <mxCell id="j7N0jPnnDhKD8VTJG3_s-95" value="" style="endArrow=classic;html=1;rounded=0;strokeWidth=3;exitX=0.5;exitY=0;exitDx=0;exitDy=0;" edge="1" parent="1" source="j7N0jPnnDhKD8VTJG3_s-98" target="j7N0jPnnDhKD8VTJG3_s-102">
          <mxGeometry width="50" height="50" relative="1" as="geometry">
            <mxPoint x="570" y="320" as="sourcePoint" />
            <mxPoint x="570" y="266" as="targetPoint" />
            <Array as="points">
              <mxPoint x="185" y="257" />
            </Array>
          </mxGeometry>
        </mxCell>
        <mxCell id="j7N0jPnnDhKD8VTJG3_s-96" value="&lt;h2&gt;Azure Load Balancer&lt;br&gt;Balanceador de carga &lt;br&gt;regional 2&lt;/h2&gt;" style="text;html=1;align=center;verticalAlign=middle;resizable=0;points=[];autosize=1;strokeColor=none;fillColor=none;" vertex="1" parent="1">
          <mxGeometry x="219" y="314" width="210" height="110" as="geometry" />
        </mxCell>
        <mxCell id="j7N0jPnnDhKD8VTJG3_s-97" value="&lt;h2&gt;&lt;font style=&quot;color: rgb(0, 102, 204);&quot;&gt;Virtual Network Gateway&lt;/font&gt;&lt;/h2&gt;" style="text;html=1;align=center;verticalAlign=middle;resizable=0;points=[];autosize=1;strokeColor=none;fillColor=none;" vertex="1" parent="1">
          <mxGeometry x="185" y="519.15" width="230" height="60" as="geometry" />
        </mxCell>
        <mxCell id="j7N0jPnnDhKD8VTJG3_s-98" value="" style="shape=image;verticalLabelPosition=bottom;labelBackgroundColor=default;verticalAlign=top;aspect=fixed;imageAspect=0;editableCssRules=.*;image=data:image/svg+xml,PHN2ZyB4bWxucz0iaHR0cDovL3d3dy53My5vcmcvMjAwMC9zdmciIHZpZXdCb3g9Ii0wLjAwMTU1MDc5ODc3MDA0MDI3MzcgLTAuMDAxNTUwMjAwOTc3MzYyNjkyNCAxOC4wMDMxMDEzNDg4NzY5NTMgMTguMDAzMDY1MTA5MjUyOTMiIGhlaWdodD0iMTguMDAzMDY1MTA5MjUyOTMiIHdpZHRoPSIxOC4wMDMxMDEzNDg4NzY5NTMiIGlkPSJlMWU3MWUyOS0wNjVhLTQ2ZjctYWQ0Yi01MmFmMzZhMGJmY2IiPjxkZWZzPjxsaW5lYXJHcmFkaWVudCBncmFkaWVudFVuaXRzPSJ1c2VyU3BhY2VPblVzZSIgeTI9Ii0xLjAyIiB4Mj0iOSIgeTE9IjE5Ljg1IiB4MT0iOSIgaWQ9ImVmODQ2NjNhLWE3YjYtNDZhNy1hMjc1LTFlNDE5ZjVlYWU2MiI+PHN0b3Agc3RvcC1jb2xvcj0iIzVlOTYyNCIgb2Zmc2V0PSIwIi8+PHN0b3Agc3RvcC1jb2xvcj0iIzVmOTcyNCIgb2Zmc2V0PSIwLjAyIi8+PHN0b3Agc3RvcC1jb2xvcj0iIzc2YmMyZCIgb2Zmc2V0PSIxIi8+PC9saW5lYXJHcmFkaWVudD48L2RlZnM+PHRpdGxlPkljb24tbmV0d29ya2luZy02MjwvdGl0bGU+PHBhdGggZmlsbD0idXJsKCNlZjg0NjYzYS1hN2I2LTQ2YTctYTI3NS0xZTQxOWY1ZWFlNjIpIiBkPSJNLjE4LDguNTcsOC41Ny4xOGEuNi42LDAsMCwxLC44NiwwbDguMzksOC4zOWEuNi42LDAsMCwxLDAsLjg2bC04LjQsOC40YS42LjYsMCwwLDEtLjg0LDBMLjE4LDkuNDNBLjYuNiwwLDAsMSwuMTgsOC41N1oiLz48cGF0aCBmaWxsPSIjYjRlYzM2IiBkPSJNMTEuMiw0LDkuMDgsMS44OWEuMTIuMTIsMCwwLDAtLjE2LDBMNi44LDRhLjEuMSwwLDAsMCwuMDguMThIOC4xMmEuMTEuMTEsMCwwLDEsLjExLjExdjJhLjExLjExLDAsMCwwLC4xMS4xMUg5LjY2YS4xMS4xMSwwLDAsMCwuMTEtLjExdi0yYS4xMS4xMSwwLDAsMSwuMTEtLjExaDEuMjRBLjEuMSwwLDAsMCwxMS4yLDRaIi8+PHBhdGggZmlsbD0iI2I0ZWMzNiIgZD0iTTQsNi42MSwxLjksOC43NGEuMTEuMTEsMCwwLDAsMCwuMTVMNCwxMWEuMTEuMTEsMCwwLDAsLjE5LS4wOFY5LjY5YS4xMS4xMSwwLDAsMSwuMTEtLjExaDJhLjEuMSwwLDAsMCwuMS0uMTFWOC4xNUEuMS4xLDAsMCwwLDYuMzMsOGgtMmEuMS4xLDAsMCwxLS4xMS0uMVY2LjY5QS4xMS4xMSwwLDAsMCw0LDYuNjFaIi8+PHBhdGggZmlsbD0iI2I0ZWMzNiIgZD0iTTE0LjA4LDExbDIuMTMtMi4xMmEuMTEuMTEsMCwwLDAsMC0uMTVMMTQuMDgsNi42MWEuMTEuMTEsMCwwLDAtLjE4LjA4VjcuOTRhLjEuMSwwLDAsMS0uMTEuMWgtMmEuMS4xLDAsMCwwLS4xLjExVjkuNDdhLjEuMSwwLDAsMCwuMS4xMWgyYS4xMS4xMSwwLDAsMSwuMTEuMTF2MS4yNEEuMTEuMTEsMCwwLDAsMTQuMDgsMTFaIi8+PHBhdGggZmlsbD0iI2ZmZiIgZD0iTTExLjc5LDlhMi43OSwyLjc5LDAsMSwwLTMuNTQsMi42N3YuOTVhMS43MSwxLjcxLDAsMSwwLDEuNTcsMHYtMUEyLjc3LDIuNzcsMCwwLDAsMTEuNzksOVoiLz48Y2lyY2xlIGZpbGw9IiM1ZWEwZWYiIHI9IjEuNjIiIGN5PSI4Ljk5IiBjeD0iOS4wMSIgaWQ9ImU5OWMzMzg3LTE1YzMtNGYyOC1iZDRiLWNiMjA5YjQzMGUwNiIvPjwvc3ZnPg==;" vertex="1" parent="1">
          <mxGeometry x="140" y="322" width="90" height="90" as="geometry" />
        </mxCell>
        <mxCell id="j7N0jPnnDhKD8VTJG3_s-99" value="" style="shape=image;verticalLabelPosition=bottom;labelBackgroundColor=default;verticalAlign=top;aspect=fixed;imageAspect=0;editableCssRules=.*;image=data:image/svg+xml,PHN2ZyB4bWxucz0iaHR0cDovL3d3dy53My5vcmcvMjAwMC9zdmciIHZpZXdCb3g9Ii0wLjI1MjgxMjA1NzczMzUzNTc3IDMuNDgyNzcyMTExODkyNyAxOC41MDMwODAzNjgwNDE5OTIgMTEuMDMyODQzNTg5NzgyNzE1IiBoZWlnaHQ9IjExLjAzMjg0MzU4OTc4MjcxNSIgd2lkdGg9IjE4LjUwMzA4MDM2ODA0MTk5MiIgaWQ9ImExNjA2YTUyLWZiMTQtNDYzNy04N2RlLTRkNTI0YmJhMTgyOSI+PGRlZnM+PGxpbmVhckdyYWRpZW50IGdyYWRpZW50VW5pdHM9InVzZXJTcGFjZU9uVXNlIiBncmFkaWVudFRyYW5zZm9ybT0idHJhbnNsYXRlKDIuMDMgLTAuNCkgcm90YXRlKC0wLjA4KSIgeTI9IjEwLjIzIiB4Mj0iMTEuNTIiIHkxPSI4LjU5IiB4MT0iOS44OCIgaWQ9ImYwMjBmYjdlLTIyNDMtNDUwMS04MTUzLTVkNjliZDNjMzRmNyI+PHN0b3Agc3RvcC1jb2xvcj0iIzg2ZDYzMyIgb2Zmc2V0PSIwIi8+PHN0b3Agc3RvcC1jb2xvcj0iIzVlOTYyNCIgb2Zmc2V0PSIxIi8+PC9saW5lYXJHcmFkaWVudD48bGluZWFyR3JhZGllbnQgZ3JhZGllbnRVbml0cz0idXNlclNwYWNlT25Vc2UiIHkyPSIxMC4yMyIgeDI9IjcuODEiIHkxPSI4LjU5IiB4MT0iNi4xOCIgaWQ9ImIzYzJiYzk0LThjN2MtNDhhMi05NzE5LTZlZTg5OWE0M2E5NyI+PHN0b3Agc3RvcC1jb2xvcj0iIzg2ZDYzMyIgb2Zmc2V0PSIwIi8+PHN0b3Agc3RvcC1jb2xvcj0iIzVlOTYyNCIgb2Zmc2V0PSIxIi8+PC9saW5lYXJHcmFkaWVudD48bGluZWFyR3JhZGllbnQgZ3JhZGllbnRVbml0cz0idXNlclNwYWNlT25Vc2UiIHkyPSIxMC4yMyIgeDI9IjQuMTEiIHkxPSI4LjU5IiB4MT0iMi40OCIgaWQ9ImU5MDBjMzVkLTA5NTgtNGQ0Zi1iMjhmLTMwMmVlYWFmNTJmNSI+PHN0b3Agc3RvcC1jb2xvcj0iIzg2ZDYzMyIgb2Zmc2V0PSIwIi8+PHN0b3Agc3RvcC1jb2xvcj0iIzVlOTYyNCIgb2Zmc2V0PSIxIi8+PC9saW5lYXJHcmFkaWVudD48L2RlZnM+PHRpdGxlPkljb24tbmV0d29ya2luZy02MTwvdGl0bGU+PGNpcmNsZSBmaWxsPSJ1cmwoI2YwMjBmYjdlLTIyNDMtNDUwMS04MTUzLTVkNjliZDNjMzRmNykiIHI9IjEuMTYiIGN5PSI4Ljk5IiBjeD0iMTIuNzQiLz48Y2lyY2xlIGZpbGw9InVybCgjYjNjMmJjOTQtOGM3Yy00OGEyLTk3MTktNmVlODk5YTQzYTk3KSIgcj0iMS4xNiIgY3k9IjkiIGN4PSI5LjA0Ii8+PGNpcmNsZSBmaWxsPSJ1cmwoI2U5MDBjMzVkLTA5NTgtNGQ0Zi1iMjhmLTMwMmVlYWFmNTJmNSkiIHI9IjEuMTYiIGN5PSI5IiBjeD0iNS4zNCIvPjxwYXRoIGZpbGw9IiM1MGU2ZmYiIHRyYW5zZm9ybT0idHJhbnNsYXRlKDEzLjE4IDE2LjkzKSByb3RhdGUoMTM0LjkyKSIgZD0iTTIuNjEsNy4yOGguOTRhLjMuMywwLDAsMSwuMy4zdjYuOTRhLjYuNiwwLDAsMS0uNi42SDIuMzFhMCwwLDAsMCwxLDAsMFY3LjU4YS4zLjMsMCwwLDEsLjMtLjNaIi8+PHBhdGggZmlsbD0iIzE0OTBkZiIgdHJhbnNmb3JtPSJ0cmFuc2xhdGUoNS42NiAtMC4xNikgcm90YXRlKDQ0LjkyKSIgZD0iTTIuNTYsMi45MUgzLjVhLjMuMywwLDAsMSwuMy4zdjcuNDNhMCwwLDAsMCwxLDAsMEgyLjg2YS42LjYsMCwwLDEtLjYtLjZWMy4yMWEuMy4zLDAsMCwxLC4zLS4zWiIvPjxwYXRoIGZpbGw9IiM1MGU2ZmYiIHRyYW5zZm9ybT0idHJhbnNsYXRlKDEyLjMyIC03LjI4KSByb3RhdGUoNDUuMDgpIiBkPSJNMTQuMTUsNy4yOGguOTRhLjYuNiwwLDAsMSwuNi42djYuOTRhLjMuMywwLDAsMS0uMy4zaC0uOTRhLjMuMywwLDAsMS0uMy0uM1Y3LjI4YTAsMCwwLDAsMSwwLDBaIi8+PHBhdGggZmlsbD0iIzE0OTBkZiIgdHJhbnNmb3JtPSJ0cmFuc2xhdGUoMzAuMzYgMC45OSkgcm90YXRlKDEzNS4wOCkiIGQ9Ik0xNC44MSwyLjkxaC45NGEwLDAsMCwwLDEsMCwwdjcuNDNhLjMuMywwLDAsMS0uMy4zSDE0LjVhLjMuMywwLDAsMS0uMy0uM1YzLjUxYS42LjYsMCwwLDEsLjYtLjZaIi8+PC9zdmc+;" vertex="1" parent="1">
          <mxGeometry x="120" y="164.95000000000005" width="90" height="52.1" as="geometry" />
        </mxCell>
        <mxCell id="j7N0jPnnDhKD8VTJG3_s-100" value="" style="shape=image;verticalLabelPosition=bottom;labelBackgroundColor=default;verticalAlign=top;aspect=fixed;imageAspect=0;editableCssRules=.*;image=data:image/svg+xml,PHN2ZyB4bWxucz0iaHR0cDovL3d3dy53My5vcmcvMjAwMC9zdmciIHZpZXdCb3g9IjIuMjIwMDAwMDI4NjEwMjI5NSAtMC4wMDA0NDI0NzQwMDM2NDgzODU0IDEzLjU2MDAwMDQxOTYxNjcgMTguMDUwNDQzNjQ5MjkxOTkyIiBoZWlnaHQ9IjE4LjA1MDQ0MzY0OTI5MTk5MiIgd2lkdGg9IjEzLjU2MDAwMDQxOTYxNjciIGlkPSJiNmY3NGNhNS0zYWU2LTQyNmYtOWVmMS05ZmY2YmJhYTdmMWMiPjxkZWZzPjxsaW5lYXJHcmFkaWVudCBncmFkaWVudFVuaXRzPSJ1c2VyU3BhY2VPblVzZSIgeTI9IjIwLjA1IiB4Mj0iOS4xMiIgeTE9Ii03Ljc5IiB4MT0iOC41OSIgaWQ9ImJkNzMwNWY4LTg3ODktNDYwMC1hMWYyLTY1OTRlNjBlZWZjYyI+PHN0b3Agc3RvcC1jb2xvcj0iIzMyZDRmNSIgb2Zmc2V0PSIwLjIyIi8+PHN0b3Agc3RvcC1jb2xvcj0iIzMxZDFmMyIgb2Zmc2V0PSIwLjQ3Ii8+PHN0b3Agc3RvcC1jb2xvcj0iIzJlYzllYiIgb2Zmc2V0PSIwLjYzIi8+PHN0b3Agc3RvcC1jb2xvcj0iIzI5YmFkZSIgb2Zmc2V0PSIwLjc3Ii8+PHN0b3Agc3RvcC1jb2xvcj0iIzIyYTVjYiIgb2Zmc2V0PSIwLjg5Ii8+PHN0b3Agc3RvcC1jb2xvcj0iIzE5OGFiMyIgb2Zmc2V0PSIxIi8+PHN0b3Agc3RvcC1jb2xvcj0iIzE5OGFiMyIgb2Zmc2V0PSIxIi8+PC9saW5lYXJHcmFkaWVudD48L2RlZnM+PHRpdGxlPkljb24tbmV0d29ya2luZy02MzwvdGl0bGU+PHBhdGggZmlsbD0idXJsKCNiZDczMDVmOC04Nzg5LTQ2MDAtYTFmMi02NTk0ZTYwZWVmY2MpIiBkPSJNMTUuMDYsOC42N2gtMVY1LjU5YTUuODEsNS44MSwwLDAsMC0xLjQ5LTMuOTJBNC43OSw0Ljc5LDAsMCwwLDguOTEsMGE0Ljc5LDQuNzksMCwwLDAtMy43LDEuNjdBNS43Myw1LjczLDAsMCwwLDMuNzIsNS41OVY4LjY3SDIuOTFhLjcuNywwLDAsMC0uNjkuNjl2OGEuNy43LDAsMCwwLC42OS42OUgxNS4wNmEuNzEuNzEsMCwwLDAsLjctLjY5VjkuMzZBLjcxLjcxLDAsMCwwLDE1LjA2LDguNjdabS0zLjM3LDBINi4xM1Y1LjU0QTMuMTgsMy4xOCwwLDAsMSw3LDMuMzlhMi41MSwyLjUxLDAsMCwxLDEuODgtLjg2LDIuNTQsMi41NCwwLDAsMSwxLjg5Ljg2LDMuMTksMy4xOSwwLDAsMSwuMzIuNDNoMGEzLDMsMCwwLDEsLjYxLDEuNzFaIi8+PHBhdGggZmlsbD0iIzUwZTZmZiIgZD0iTTE1LjA5LDguNjdIMi45MmEuNjYuNjYsMCwwLDAtLjQ0LjE3bDEzLjA1LDlhLjY3LjY3LDAsMCwwLC4yNS0uNTJ2LThBLjcxLjcxLDAsMCwwLDE1LjA5LDguNjdaIi8+PHBhdGggb3BhY2l0eT0iMC4yIiBmaWxsPSIjZmZmIiBkPSJNMi45NCw4LjY3SDE1LjFhLjcuNywwLDAsMSwuNDUuMTdsLTEzLjA2LDlhLjcuNywwLDAsMS0uMjUtLjUydi04QS43Mi43MiwwLDAsMSwyLjk0LDguNjdaIi8+PHBhdGggZmlsbD0iI2ZmZiIgZD0iTTcuOCwxMC42LDksOS40YS4wNy4wNywwLDAsMSwuMDksMGwxLjE5LDEuMmEuMDYuMDYsMCwwLDEsMCwuMWgtLjdhLjA2LjA2LDAsMCwwLS4wNi4wNlYxMi4zYS4wNi4wNiwwLDAsMS0uMDYuMDZIOC42N2EuMDUuMDUsMCwwLDEtLjA2LS4wNlYxMC43NmEuMDcuMDcsMCwwLDAtLjA3LS4wNmgtLjdBLjA2LjA2LDAsMCwxLDcuOCwxMC42Wm0yLjQ3LDUuNDhMOS4wOCwxNy4yN2EuMDYuMDYsMCwwLDEtLjA5LDBMNy44LDE2LjA4YS4wNi4wNiwwLDAsMSwwLS4xaC43YS4wNy4wNywwLDAsMCwuMDctLjA2VjE0LjM3YS4wNi4wNiwwLDAsMSwuMDYtLjA2aC43NGEuMDYuMDYsMCwwLDEsLjA2LjA2djEuNTVhLjA2LjA2LDAsMCwwLC4wNi4wNmguN0EuMDYuMDYsMCwwLDEsMTAuMjcsMTYuMDhabS00LjctMS41NXYtLjdhLjA2LjA2LDAsMCwwLS4wNi0uMDZINGEuMDYuMDYsMCwwLDEtLjA2LS4wNlYxM0EuMDYuMDYsMCwwLDEsNCwxMi45MUg1LjUxYS4wNi4wNiwwLDAsMCwuMDYtLjA2di0uN2EuMDcuMDcsMCwwLDEsLjExLS4wNWwxLjE5LDEuMmEuMDYuMDYsMCwwLDEsMCwuMDhsLTEuMTksMS4yQS4wNy4wNywwLDAsMSw1LjU3LDE0LjUzWm02LjkzLTIuMzh2LjdhLjA2LjA2LDAsMCwwLC4wNi4wNkgxNC4xcy4wNywwLC4wNy4wNnYuNzRhLjA3LjA3LDAsMCwxLS4wNy4wNkgxMi41NmEuMDYuMDYsMCwwLDAtLjA2LjA2di43YS4wNi4wNiwwLDAsMS0uMS4wNWwtMS4xOS0xLjJhMCwwLDAsMCwxLDAtLjA4bDEuMTktMS4yUzEyLjUsMTIuMDksMTIuNSwxMi4xNVoiLz48L3N2Zz4=;" vertex="1" parent="1">
          <mxGeometry x="125" y="502" width="60" height="77.15" as="geometry" />
        </mxCell>
        <mxCell id="j7N0jPnnDhKD8VTJG3_s-101" value="" style="shape=image;verticalLabelPosition=bottom;labelBackgroundColor=default;verticalAlign=top;aspect=fixed;imageAspect=0;editableCssRules=.*;image=data:image/svg+xml,PHN2ZyB4bWxucz0iaHR0cDovL3d3dy53My5vcmcvMjAwMC9zdmciIHZpZXdCb3g9Ii0wLjExOTk5OTk5NzMxNzc5MDk5IDAuMjA5OTk5OTkzNDQzNDg5MDcgMTggMTYuNjMwMDAxMDY4MTE1MjM0IiBoZWlnaHQ9IjE2LjYzMDAwMTA2ODExNTIzNCIgd2lkdGg9IjE4IiBpZD0iZmQ0NTRmMWMtNTUwNi00NGI4LTg3NGUtODgxNGI4YjJmNzBiIj48ZGVmcz48bGluZWFyR3JhZGllbnQgZ3JhZGllbnRVbml0cz0idXNlclNwYWNlT25Vc2UiIHkyPSIwLjIxIiB4Mj0iOC44OCIgeTE9IjEyLjIxIiB4MT0iOC44OCIgaWQ9ImYzNGQ5NTY5LTJiZDAtNDAwMi04ZjE2LTNkMDFkODEwNmNiNSI+PHN0b3Agc3RvcC1jb2xvcj0iIzAwNzhkNCIgb2Zmc2V0PSIwIi8+PHN0b3Agc3RvcC1jb2xvcj0iIzVlYTBlZiIgb2Zmc2V0PSIwLjgyIi8+PC9saW5lYXJHcmFkaWVudD48bGluZWFyR3JhZGllbnQgZ3JhZGllbnRVbml0cz0idXNlclNwYWNlT25Vc2UiIHkyPSIxMi4yMSIgeDI9IjguODgiIHkxPSIxNi44NCIgeDE9IjguODgiIGlkPSJiZGI0NWEwYi1lYjU4LTQ5NzAtYTYwYS1mYjJjZTMxNGY4NjYiPjxzdG9wIHN0b3AtY29sb3I9IiNjY2MiIG9mZnNldD0iMC4xNSIvPjxzdG9wIHN0b3AtY29sb3I9IiM3MDcwNzAiIG9mZnNldD0iMSIvPjwvbGluZWFyR3JhZGllbnQ+PC9kZWZzPjx0aXRsZT5JY29uLWNvbXB1dGUtMjE8L3RpdGxlPjxyZWN0IGZpbGw9InVybCgjZjM0ZDk1NjktMmJkMC00MDAyLThmMTYtM2QwMWQ4MTA2Y2I1KSIgcng9IjAuNiIgaGVpZ2h0PSIxMiIgd2lkdGg9IjE4IiB5PSIwLjIxIiB4PSItMC4xMiIvPjxwb2x5Z29uIGZpbGw9IiM1MGU2ZmYiIHBvaW50cz0iMTEuODggNC40NiAxMS44OCA3Ljk1IDguODggOS43MSA4Ljg4IDYuMjEgMTEuODggNC40NiIvPjxwb2x5Z29uIGZpbGw9IiNjM2YxZmYiIHBvaW50cz0iMTEuODggNC40NiA4Ljg4IDYuMjIgNS44OCA0LjQ2IDguODggMi43MSAxMS44OCA0LjQ2Ii8+PHBvbHlnb24gZmlsbD0iIzljZWJmZiIgcG9pbnRzPSI4Ljg4IDYuMjIgOC44OCA5LjcxIDUuODggNy45NSA1Ljg4IDQuNDYgOC44OCA2LjIyIi8+PHBvbHlnb24gZmlsbD0iI2MzZjFmZiIgcG9pbnRzPSI1Ljg4IDcuOTUgOC44OCA2LjIxIDguODggOS43MSA1Ljg4IDcuOTUiLz48cG9seWdvbiBmaWxsPSIjOWNlYmZmIiBwb2ludHM9IjExLjg4IDcuOTUgOC44OCA2LjIxIDguODggOS43MSAxMS44OCA3Ljk1Ii8+PHBhdGggZmlsbD0idXJsKCNiZGI0NWEwYi1lYjU4LTQ5NzAtYTYwYS1mYjJjZTMxNGY4NjYpIiBkPSJNMTIuNDksMTUuODRjLTEuNzgtLjI4LTEuODUtMS41Ni0xLjg1LTMuNjNINy4xMWMwLDIuMDctLjA2LDMuMzUtMS44NCwzLjYzYTEsMSwwLDAsMC0uODksMWg5QTEsMSwwLDAsMCwxMi40OSwxNS44NFoiLz48L3N2Zz4=;" vertex="1" parent="1">
          <mxGeometry x="845" y="208.04999999999995" width="90" height="85" as="geometry" />
        </mxCell>
        <mxCell id="j7N0jPnnDhKD8VTJG3_s-102" value="" style="shape=image;verticalLabelPosition=bottom;labelBackgroundColor=default;verticalAlign=top;aspect=fixed;imageAspect=0;editableCssRules=.*;image=data:image/svg+xml,PHN2ZyB4bWxucz0iaHR0cDovL3d3dy53My5vcmcvMjAwMC9zdmciIHZpZXdCb3g9IjAuNDk2OTEyNzQ3NjIxNTM2MjUgMC41MzE1Njk0MjEyOTEzNTEzIDE2Ljk2NzYyNDY2NDMwNjY0IDE2Ljk3MTUxOTQ3MDIxNDg0NCIgaGVpZ2h0PSIxNi45NzE1MTk0NzAyMTQ4NDQiIHdpZHRoPSIxNi45Njc2MjQ2NjQzMDY2NCIgaWQ9ImI3MGFjZjBhLTM0YjQtNGJkZi05MDI0LTc0OTYwNDNmZjkxNSI+PGRlZnM+PHJhZGlhbEdyYWRpZW50IGdyYWRpZW50VW5pdHM9InVzZXJTcGFjZU9uVXNlIiBncmFkaWVudFRyYW5zZm9ybT0idHJhbnNsYXRlKC0yMDA1LjMzIC01MTguODMpIHNjYWxlKDAuMTUpIiByPSI1Ni42NyIgY3k9IjM1MTguODYiIGN4PSIxMzQyOC44MSIgaWQ9ImUyY2Y4NzQ2LWM5YTgtNGVlZS04NmMyLTQ5NTE5ODNjNjAzMiI+PHN0b3Agc3RvcC1jb2xvcj0iIzVlYTBlZiIgb2Zmc2V0PSIwLjE4Ii8+PHN0b3Agc3RvcC1jb2xvcj0iIzAwNzhkNCIgb2Zmc2V0PSIxIi8+PC9yYWRpYWxHcmFkaWVudD48bGluZWFyR3JhZGllbnQgZ3JhZGllbnRVbml0cz0idXNlclNwYWNlT25Vc2UiIHkyPSI3LjUzIiB4Mj0iNC4zNyIgeTE9IjExLjQ4IiB4MT0iNC40IiBpZD0iYmRkMjEzZGQtZDMxMy00NzNjLThmZjQtMDEzM2ZkM2E5MDMzIj48c3RvcCBzdG9wLWNvbG9yPSIjY2NjIiBvZmZzZXQ9IjAiLz48c3RvcCBzdG9wLWNvbG9yPSIjZmNmY2ZjIiBvZmZzZXQ9IjEiLz48L2xpbmVhckdyYWRpZW50PjxsaW5lYXJHcmFkaWVudCBncmFkaWVudFVuaXRzPSJ1c2VyU3BhY2VPblVzZSIgeTI9IjExLjkiIHgyPSIxMC4xMyIgeTE9IjE1LjQ1IiB4MT0iMTAuMTMiIGlkPSJhZmNjNjNjNS0zNjQ5LTQ0NzYtYTc0Mi1iY2I1M2E1NjlmM2MiPjxzdG9wIHN0b3AtY29sb3I9IiNjY2MiIG9mZnNldD0iMCIvPjxzdG9wIHN0b3AtY29sb3I9IiNmY2ZjZmMiIG9mZnNldD0iMSIvPjwvbGluZWFyR3JhZGllbnQ+PGxpbmVhckdyYWRpZW50IGdyYWRpZW50VW5pdHM9InVzZXJTcGFjZU9uVXNlIiB5Mj0iNy4zOCIgeDI9IjE0LjE4IiB5MT0iMTEuMTUiIHgxPSIxNC4xOCIgaWQ9ImJkODczZjBiLTk5NTQtNGFhNS1hM2RmLTlmNGM2NGU4NzI5ZCI+PHN0b3Agc3RvcC1jb2xvcj0iI2NjYyIgb2Zmc2V0PSIwIi8+PHN0b3Agc3RvcC1jb2xvcj0iI2ZjZmNmYyIgb2Zmc2V0PSIxIi8+PC9saW5lYXJHcmFkaWVudD48L2RlZnM+PHRpdGxlPkljb24td2ViLTQxPC90aXRsZT48cGF0aCBmaWxsPSJ1cmwoI2UyY2Y4NzQ2LWM5YTgtNGVlZS04NmMyLTQ5NTE5ODNjNjAzMikiIGQ9Ik0xNC4yMSwxNS43MkE4LjUsOC41LDAsMCwxLDMuNzksMi4yOGwuMDktLjA2YTguNSw4LjUsMCwwLDEsMTAuMzMsMTMuNSIgaWQ9ImVlNzVkZDA2LTFhY2EtNGY3Ni05ZDExLWQwNWEyODQwMjBhZCIvPjxwYXRoIG9wYWNpdHk9IjAuNiIgZmlsbD0iI2ZmZiIgZD0iTTYuNjksNy4yM0ExMywxMywwLDAsMSwxNS42LDMuNjVhOC40Nyw4LjQ3LDAsMCwwLTEuNDktMS40NCwxNC4zNCwxNC4zNCwwLDAsMC00LjY5LDEuMUExMi41NCwxMi41NCwwLDAsMCw1LjM0LDYuMTMsMi43NiwyLjc2LDAsMCwxLDYuNjksNy4yM1oiLz48cGF0aCBvcGFjaXR5PSIwLjYiIGZpbGw9IiNmZmYiIGQ9Ik0yLjQ4LDEwLjY1YTE3Ljg2LDE3Ljg2LDAsMCwwLS44MywyLjYyLDcuODIsNy44MiwwLDAsMCwuNjIuOTJjLjE4LjIzLjM1LjQ0LjU1LjY1QTE3Ljk0LDE3Ljk0LDAsMCwxLDMuOSwxMS4zNywyLjc2LDIuNzYsMCwwLDEsMi40OCwxMC42NVoiLz48cGF0aCBvcGFjaXR5PSIwLjU1IiBmaWxsPSIjZjJmMmYyIiBkPSJNMy40Niw2LjExYTEyLDEyLDAsMCwxLS42OS0yLjk0LDguMTUsOC4xNSwwLDAsMC0xLjEsMS40NUExMi42OSwxMi42OSwwLDAsMCwyLjI0LDcsMi42OSwyLjY5LDAsMCwxLDMuNDYsNi4xMVoiLz48Y2lyY2xlIGZpbGw9InVybCgjYmRkMjEzZGQtZDMxMy00NzNjLThmZjQtMDEzM2ZkM2E5MDMzKSIgcj0iMi43MyIgY3k9IjguNjgiIGN4PSI0LjM4Ii8+PHBhdGggb3BhY2l0eT0iMC41NSIgZmlsbD0iI2YyZjJmMiIgZD0iTTguMzYsMTMuNjdBMS43NywxLjc3LDAsMCwxLDguOSwxMi40YTExLjg4LDExLjg4LDAsMCwxLTIuNTMtMS44NiwyLjc0LDIuNzQsMCwwLDEtMS40OS44MywxMy4xLDEzLjEsMCwwLDAsMS40NSwxLjI4QTEyLjEyLDEyLjEyLDAsMCwwLDguMzgsMTMuOSwxLjc5LDEuNzksMCwwLDEsOC4zNiwxMy42N1oiLz48cGF0aCBvcGFjaXR5PSIwLjU1IiBmaWxsPSIjZjJmMmYyIiBkPSJNMTQuNjYsMTMuODhhMTIsMTIsMCwwLDEtMi43Ni0uMzIuNDEuNDEsMCwwLDEsMCwuMTEsMS43NSwxLjc1LDAsMCwxLS41MSwxLjI0LDEzLjY5LDEzLjY5LDAsMCwwLDMuNDIuMjRBOC4yMSw4LjIxLDAsMCwwLDE2LDEzLjgxLDExLjUsMTEuNSwwLDAsMSwxNC42NiwxMy44OFoiLz48Y2lyY2xlIGZpbGw9InVybCgjYWZjYzYzYzUtMzY0OS00NDc2LWE3NDItYmNiNTNhNTY5ZjNjKSIgcj0iMS43OCIgY3k9IjEzLjY3IiBjeD0iMTAuMTMiLz48cGF0aCBvcGFjaXR5PSIwLjciIGZpbGw9IiNmMmYyZjIiIGQ9Ik0xMi4zMiw4LjkzYTEuODMsMS44MywwLDAsMSwuNjEtMUEyNS41LDI1LjUsMCwwLDEsOC40NywzLjc5YTE2LjkxLDE2LjkxLDAsMCwxLTItMi45Miw3LjY0LDcuNjQsMCwwLDAtMS4wOS40MkExOC4xNCwxOC4xNCwwLDAsMCw3LjUzLDQuNDcsMjYuNDQsMjYuNDQsMCwwLDAsMTIuMzIsOC45M1oiLz48Y2lyY2xlIGZpbGw9InVybCgjYmQ4NzNmMGItOTk1NC00YWE1LWEzZGYtOWY0YzY0ZTg3MjlkKSIgcj0iMS44OSIgY3k9IjkuMjciIGN4PSIxNC4xOCIvPjxwYXRoIG9wYWNpdHk9IjAuNTUiIGZpbGw9IiNmMmYyZjIiIGQ9Ik0xNy4zNSwxMC41NCwxNywxMC4zN2wwLDAtLjMtLjE2LS4wNiwwTDE2LjM4LDEwbC0uMDcsMEwxNiw5LjhhMS43NiwxLjc2LDAsMCwxLS42NC45MmMuMTIuMDguMjUuMTUuMzguMjJsLjA4LjA1LjM1LjE5LDAsMCwuODYuNDVoMGE4LjYzLDguNjMsMCwwLDAsLjI5LTEuMTFaIi8+PGNpcmNsZSBmaWxsPSJ1cmwoI2JkZDIxM2RkLWQzMTMtNDczYy04ZmY0LTAxMzNmZDNhOTAzMykiIHI9IjIuNzMiIGN5PSI4LjY4IiBjeD0iNC4zOCIvPjxjaXJjbGUgZmlsbD0idXJsKCNhZmNjNjNjNS0zNjQ5LTQ0NzYtYTc0Mi1iY2I1M2E1NjlmM2MpIiByPSIxLjc4IiBjeT0iMTMuNjciIGN4PSIxMC4xMyIvPjwvc3ZnPg==;" vertex="1" parent="1">
          <mxGeometry x="445" y="212" width="90" height="90" as="geometry" />
        </mxCell>
        <mxCell id="j7N0jPnnDhKD8VTJG3_s-103" value="" style="shape=image;verticalLabelPosition=bottom;labelBackgroundColor=default;verticalAlign=top;aspect=fixed;imageAspect=0;editableCssRules=.*;image=data:image/svg+xml,PHN2ZyB4bWxucz0iaHR0cDovL3d3dy53My5vcmcvMjAwMC9zdmciIHZpZXdCb3g9IjAuNDk2OTEyNzQ3NjIxNTM2MjUgMC41MzE1Njk0MjEyOTEzNTEzIDE2Ljk2NzYyNDY2NDMwNjY0IDE2Ljk3MTUxOTQ3MDIxNDg0NCIgaGVpZ2h0PSIxNi45NzE1MTk0NzAyMTQ4NDQiIHdpZHRoPSIxNi45Njc2MjQ2NjQzMDY2NCIgaWQ9ImI3MGFjZjBhLTM0YjQtNGJkZi05MDI0LTc0OTYwNDNmZjkxNSI+PGRlZnM+PHJhZGlhbEdyYWRpZW50IGdyYWRpZW50VW5pdHM9InVzZXJTcGFjZU9uVXNlIiBncmFkaWVudFRyYW5zZm9ybT0idHJhbnNsYXRlKC0yMDA1LjMzIC01MTguODMpIHNjYWxlKDAuMTUpIiByPSI1Ni42NyIgY3k9IjM1MTguODYiIGN4PSIxMzQyOC44MSIgaWQ9ImUyY2Y4NzQ2LWM5YTgtNGVlZS04NmMyLTQ5NTE5ODNjNjAzMiI+PHN0b3Agc3RvcC1jb2xvcj0iIzVlYTBlZiIgb2Zmc2V0PSIwLjE4Ii8+PHN0b3Agc3RvcC1jb2xvcj0iIzAwNzhkNCIgb2Zmc2V0PSIxIi8+PC9yYWRpYWxHcmFkaWVudD48bGluZWFyR3JhZGllbnQgZ3JhZGllbnRVbml0cz0idXNlclNwYWNlT25Vc2UiIHkyPSI3LjUzIiB4Mj0iNC4zNyIgeTE9IjExLjQ4IiB4MT0iNC40IiBpZD0iYmRkMjEzZGQtZDMxMy00NzNjLThmZjQtMDEzM2ZkM2E5MDMzIj48c3RvcCBzdG9wLWNvbG9yPSIjY2NjIiBvZmZzZXQ9IjAiLz48c3RvcCBzdG9wLWNvbG9yPSIjZmNmY2ZjIiBvZmZzZXQ9IjEiLz48L2xpbmVhckdyYWRpZW50PjxsaW5lYXJHcmFkaWVudCBncmFkaWVudFVuaXRzPSJ1c2VyU3BhY2VPblVzZSIgeTI9IjExLjkiIHgyPSIxMC4xMyIgeTE9IjE1LjQ1IiB4MT0iMTAuMTMiIGlkPSJhZmNjNjNjNS0zNjQ5LTQ0NzYtYTc0Mi1iY2I1M2E1NjlmM2MiPjxzdG9wIHN0b3AtY29sb3I9IiNjY2MiIG9mZnNldD0iMCIvPjxzdG9wIHN0b3AtY29sb3I9IiNmY2ZjZmMiIG9mZnNldD0iMSIvPjwvbGluZWFyR3JhZGllbnQ+PGxpbmVhckdyYWRpZW50IGdyYWRpZW50VW5pdHM9InVzZXJTcGFjZU9uVXNlIiB5Mj0iNy4zOCIgeDI9IjE0LjE4IiB5MT0iMTEuMTUiIHgxPSIxNC4xOCIgaWQ9ImJkODczZjBiLTk5NTQtNGFhNS1hM2RmLTlmNGM2NGU4NzI5ZCI+PHN0b3Agc3RvcC1jb2xvcj0iI2NjYyIgb2Zmc2V0PSIwIi8+PHN0b3Agc3RvcC1jb2xvcj0iI2ZjZmNmYyIgb2Zmc2V0PSIxIi8+PC9saW5lYXJHcmFkaWVudD48L2RlZnM+PHRpdGxlPkljb24td2ViLTQxPC90aXRsZT48cGF0aCBmaWxsPSJ1cmwoI2UyY2Y4NzQ2LWM5YTgtNGVlZS04NmMyLTQ5NTE5ODNjNjAzMikiIGQ9Ik0xNC4yMSwxNS43MkE4LjUsOC41LDAsMCwxLDMuNzksMi4yOGwuMDktLjA2YTguNSw4LjUsMCwwLDEsMTAuMzMsMTMuNSIgaWQ9ImVlNzVkZDA2LTFhY2EtNGY3Ni05ZDExLWQwNWEyODQwMjBhZCIvPjxwYXRoIG9wYWNpdHk9IjAuNiIgZmlsbD0iI2ZmZiIgZD0iTTYuNjksNy4yM0ExMywxMywwLDAsMSwxNS42LDMuNjVhOC40Nyw4LjQ3LDAsMCwwLTEuNDktMS40NCwxNC4zNCwxNC4zNCwwLDAsMC00LjY5LDEuMUExMi41NCwxMi41NCwwLDAsMCw1LjM0LDYuMTMsMi43NiwyLjc2LDAsMCwxLDYuNjksNy4yM1oiLz48cGF0aCBvcGFjaXR5PSIwLjYiIGZpbGw9IiNmZmYiIGQ9Ik0yLjQ4LDEwLjY1YTE3Ljg2LDE3Ljg2LDAsMCwwLS44MywyLjYyLDcuODIsNy44MiwwLDAsMCwuNjIuOTJjLjE4LjIzLjM1LjQ0LjU1LjY1QTE3Ljk0LDE3Ljk0LDAsMCwxLDMuOSwxMS4zNywyLjc2LDIuNzYsMCwwLDEsMi40OCwxMC42NVoiLz48cGF0aCBvcGFjaXR5PSIwLjU1IiBmaWxsPSIjZjJmMmYyIiBkPSJNMy40Niw2LjExYTEyLDEyLDAsMCwxLS42OS0yLjk0LDguMTUsOC4xNSwwLDAsMC0xLjEsMS40NUExMi42OSwxMi42OSwwLDAsMCwyLjI0LDcsMi42OSwyLjY5LDAsMCwxLDMuNDYsNi4xMVoiLz48Y2lyY2xlIGZpbGw9InVybCgjYmRkMjEzZGQtZDMxMy00NzNjLThmZjQtMDEzM2ZkM2E5MDMzKSIgcj0iMi43MyIgY3k9IjguNjgiIGN4PSI0LjM4Ii8+PHBhdGggb3BhY2l0eT0iMC41NSIgZmlsbD0iI2YyZjJmMiIgZD0iTTguMzYsMTMuNjdBMS43NywxLjc3LDAsMCwxLDguOSwxMi40YTExLjg4LDExLjg4LDAsMCwxLTIuNTMtMS44NiwyLjc0LDIuNzQsMCwwLDEtMS40OS44MywxMy4xLDEzLjEsMCwwLDAsMS40NSwxLjI4QTEyLjEyLDEyLjEyLDAsMCwwLDguMzgsMTMuOSwxLjc5LDEuNzksMCwwLDEsOC4zNiwxMy42N1oiLz48cGF0aCBvcGFjaXR5PSIwLjU1IiBmaWxsPSIjZjJmMmYyIiBkPSJNMTQuNjYsMTMuODhhMTIsMTIsMCwwLDEtMi43Ni0uMzIuNDEuNDEsMCwwLDEsMCwuMTEsMS43NSwxLjc1LDAsMCwxLS41MSwxLjI0LDEzLjY5LDEzLjY5LDAsMCwwLDMuNDIuMjRBOC4yMSw4LjIxLDAsMCwwLDE2LDEzLjgxLDExLjUsMTEuNSwwLDAsMSwxNC42NiwxMy44OFoiLz48Y2lyY2xlIGZpbGw9InVybCgjYWZjYzYzYzUtMzY0OS00NDc2LWE3NDItYmNiNTNhNTY5ZjNjKSIgcj0iMS43OCIgY3k9IjEzLjY3IiBjeD0iMTAuMTMiLz48cGF0aCBvcGFjaXR5PSIwLjciIGZpbGw9IiNmMmYyZjIiIGQ9Ik0xMi4zMiw4LjkzYTEuODMsMS44MywwLDAsMSwuNjEtMUEyNS41LDI1LjUsMCwwLDEsOC40NywzLjc5YTE2LjkxLDE2LjkxLDAsMCwxLTItMi45Miw3LjY0LDcuNjQsMCwwLDAtMS4wOS40MkExOC4xNCwxOC4xNCwwLDAsMCw3LjUzLDQuNDcsMjYuNDQsMjYuNDQsMCwwLDAsMTIuMzIsOC45M1oiLz48Y2lyY2xlIGZpbGw9InVybCgjYmQ4NzNmMGItOTk1NC00YWE1LWEzZGYtOWY0YzY0ZTg3MjlkKSIgcj0iMS44OSIgY3k9IjkuMjciIGN4PSIxNC4xOCIvPjxwYXRoIG9wYWNpdHk9IjAuNTUiIGZpbGw9IiNmMmYyZjIiIGQ9Ik0xNy4zNSwxMC41NCwxNywxMC4zN2wwLDAtLjMtLjE2LS4wNiwwTDE2LjM4LDEwbC0uMDcsMEwxNiw5LjhhMS43NiwxLjc2LDAsMCwxLS42NC45MmMuMTIuMDguMjUuMTUuMzguMjJsLjA4LjA1LjM1LjE5LDAsMCwuODYuNDVoMGE4LjYzLDguNjMsMCwwLDAsLjI5LTEuMTFaIi8+PGNpcmNsZSBmaWxsPSJ1cmwoI2JkZDIxM2RkLWQzMTMtNDczYy04ZmY0LTAxMzNmZDNhOTAzMykiIHI9IjIuNzMiIGN5PSI4LjY4IiBjeD0iNC4zOCIvPjxjaXJjbGUgZmlsbD0idXJsKCNhZmNjNjNjNS0zNjQ5LTQ0NzYtYTc0Mi1iY2I1M2E1NjlmM2MpIiByPSIxLjc4IiBjeT0iMTMuNjciIGN4PSIxMC4xMyIvPjwvc3ZnPg==;" vertex="1" parent="1">
          <mxGeometry x="445" y="432" width="90" height="90" as="geometry" />
        </mxCell>
        <mxCell id="j7N0jPnnDhKD8VTJG3_s-104" value="&lt;h2&gt;Azure &lt;br&gt;App Service&lt;br&gt;&lt;/h2&gt;" style="text;html=1;align=center;verticalAlign=middle;resizable=0;points=[];autosize=1;strokeColor=none;fillColor=none;" vertex="1" parent="1">
          <mxGeometry x="425" y="148" width="130" height="90" as="geometry" />
        </mxCell>
        <mxCell id="j7N0jPnnDhKD8VTJG3_s-105" value="" style="shape=image;verticalLabelPosition=bottom;labelBackgroundColor=default;verticalAlign=top;aspect=fixed;imageAspect=0;editableCssRules=.*;image=data:image/svg+xml,PHN2ZyB4bWxucz0iaHR0cDovL3d3dy53My5vcmcvMjAwMC9zdmciIHZpZXdCb3g9IjAuNzkwMDAwMDIxNDU3NjcyMSAwLjg4OTk5OTk4NTY5NDg4NTMgMTYuOTk5OTk4MDkyNjUxMzY3IDE3IiBoZWlnaHQ9IjE3IiB3aWR0aD0iMTYuOTk5OTk4MDkyNjUxMzY3IiBpZD0iYTIxNTdmODgtZjY0MS00ZjdkLWFiYzctZjQwY2NmNWNmNjlhIj48ZGVmcz48bGluZWFyR3JhZGllbnQgZ3JhZGllbnRVbml0cz0idXNlclNwYWNlT25Vc2UiIHkyPSI4LjUyIiB4Mj0iMTIuNzQiIHkxPSIxNS4yOCIgeDE9IjEyLjc0IiBpZD0iYjgxNmM4ZWEtMDVhMi00MWZiLWJhOTktOTZkODQ1OTljOWY0Ij48c3RvcCBzdG9wLWNvbG9yPSIjMDA3OGQ0IiBvZmZzZXQ9IjAiLz48c3RvcCBzdG9wLWNvbG9yPSIjNWVhMGVmIiBvZmZzZXQ9IjAuODIiLz48L2xpbmVhckdyYWRpZW50PjxsaW5lYXJHcmFkaWVudCBncmFkaWVudFVuaXRzPSJ1c2VyU3BhY2VPblVzZSIgeTI9IjE1LjI4IiB4Mj0iMTIuNzQiIHkxPSIxNy44OSIgeDE9IjEyLjc0IiBpZD0iYWIzNzNkODgtNDFhZi00ZmMzLWIxNzItZDQ0ODlmOTEwN2EwIj48c3RvcCBzdG9wLWNvbG9yPSIjY2NjIiBvZmZzZXQ9IjAuMTUiLz48c3RvcCBzdG9wLWNvbG9yPSIjNzA3MDcwIiBvZmZzZXQ9IjEiLz48L2xpbmVhckdyYWRpZW50PjwvZGVmcz48dGl0bGU+SWNvbi1jb21wdXRlLTM0PC90aXRsZT48cmVjdCBmaWxsPSIjMDA1YmExIiByeD0iMC4zNCIgaGVpZ2h0PSI2Ljc1IiB3aWR0aD0iMTAuMTEiIHk9IjAuODkiIHg9IjAuNzkiLz48cG9seWdvbiBmaWxsPSIjNTBlNmZmIiBwb2ludHM9IjcuNTMgMy4yOCA3LjUzIDUuMjUgNS44NSA2LjIzIDUuODUgNC4yNyA3LjUzIDMuMjgiLz48cG9seWdvbiBmaWxsPSIjYzNmMWZmIiBwb2ludHM9IjcuNTMgMy4yOCA1Ljg1IDQuMjcgNC4xNiAzLjI4IDUuODUgMi4yOSA3LjUzIDMuMjgiLz48cG9seWdvbiBmaWxsPSIjOWNlYmZmIiBwb2ludHM9IjUuODUgNC4yNyA1Ljg1IDYuMjMgNC4xNiA1LjI1IDQuMTYgMy4yOCA1Ljg1IDQuMjciLz48cmVjdCBmaWxsPSIjMDA3OGQ0IiByeD0iMC4zNCIgaGVpZ2h0PSI2Ljc1IiB3aWR0aD0iMTAuMTEiIHk9IjQuNzYiIHg9IjQuNzYiLz48cG9seWdvbiBmaWxsPSIjNTBlNmZmIiBwb2ludHM9IjExLjUgNy4xNiAxMS41IDkuMTIgOS44MiAxMC4xMSA5LjgyIDguMTQgMTEuNSA3LjE2Ii8+PHBvbHlnb24gZmlsbD0iI2MzZjFmZiIgcG9pbnRzPSIxMS41IDcuMTYgOS44MiA4LjE0IDguMTMgNy4xNiA5LjgyIDYuMTcgMTEuNSA3LjE2Ii8+PHBvbHlnb24gZmlsbD0iIzljZWJmZiIgcG9pbnRzPSI5LjgyIDguMTQgOS44MiAxMC4xMSA4LjEzIDkuMTIgOC4xMyA3LjE2IDkuODIgOC4xNCIvPjxyZWN0IGZpbGw9InVybCgjYjgxNmM4ZWEtMDVhMi00MWZiLWJhOTktOTZkODQ1OTljOWY0KSIgcng9IjAuMzQiIGhlaWdodD0iNi43NSIgd2lkdGg9IjEwLjExIiB5PSI4LjUyIiB4PSI3LjY4Ii8+PHBvbHlnb24gZmlsbD0iIzUwZTZmZiIgcG9pbnRzPSIxNC40MiAxMC45MiAxNC40MiAxMi44OCAxMi43NCAxMy44NyAxMi43NCAxMS45IDE0LjQyIDEwLjkyIi8+PHBvbHlnb24gZmlsbD0iI2MzZjFmZiIgcG9pbnRzPSIxNC40MiAxMC45MiAxMi43NCAxMS45MSAxMS4wNSAxMC45MiAxMi43NCA5LjkzIDE0LjQyIDEwLjkyIi8+PHBvbHlnb24gZmlsbD0iIzljZWJmZiIgcG9pbnRzPSIxMi43NCAxMS45MSAxMi43NCAxMy44NyAxMS4wNSAxMi44OCAxMS4wNSAxMC45MiAxMi43NCAxMS45MSIvPjxwb2x5Z29uIGZpbGw9IiNjM2YxZmYiIHBvaW50cz0iMTEuMDUgMTIuODggMTIuNzQgMTEuOSAxMi43NCAxMy44NyAxMS4wNSAxMi44OCIvPjxwb2x5Z29uIGZpbGw9IiM5Y2ViZmYiIHBvaW50cz0iMTQuNDIgMTIuODggMTIuNzQgMTEuOSAxMi43NCAxMy44NyAxNC40MiAxMi44OCIvPjxwYXRoIGZpbGw9InVybCgjYWIzNzNkODgtNDFhZi00ZmMzLWIxNzItZDQ0ODlmOTEwN2EwKSIgZD0iTTE0Ljc2LDE3LjMyYy0xLS4xNi0xLS44OC0xLTJoLTJjMCwxLjE2LDAsMS44OC0xLDJhLjU5LjU5LDAsMCwwLS41LjU3aDVBLjU5LjU5LDAsMCwwLDE0Ljc2LDE3LjMyWiIvPjwvc3ZnPg==;" vertex="1" parent="1">
          <mxGeometry x="645" y="211" width="90" height="90" as="geometry" />
        </mxCell>
        <mxCell id="j7N0jPnnDhKD8VTJG3_s-106" value="" style="endArrow=classic;html=1;rounded=0;strokeWidth=3;entryX=0;entryY=0.5;entryDx=0;entryDy=0;" edge="1" parent="1">
          <mxGeometry width="50" height="50" relative="1" as="geometry">
            <mxPoint x="742" y="256" as="sourcePoint" />
            <mxPoint x="837" y="255.5" as="targetPoint" />
            <Array as="points" />
          </mxGeometry>
        </mxCell>
        <mxCell id="j7N0jPnnDhKD8VTJG3_s-107" value="" style="endArrow=classic;html=1;rounded=0;strokeWidth=3;" edge="1" parent="1">
          <mxGeometry width="50" height="50" relative="1" as="geometry">
            <mxPoint x="542" y="256" as="sourcePoint" />
            <mxPoint x="600" y="256" as="targetPoint" />
            <Array as="points" />
          </mxGeometry>
        </mxCell>
        <mxCell id="j7N0jPnnDhKD8VTJG3_s-108" value="&lt;h2&gt;Auto Scale&lt;/h2&gt;" style="text;html=1;align=center;verticalAlign=middle;resizable=0;points=[];autosize=1;strokeColor=none;fillColor=none;" vertex="1" parent="1">
          <mxGeometry x="626" y="163.95000000000005" width="120" height="60" as="geometry" />
        </mxCell>
        <mxCell id="j7N0jPnnDhKD8VTJG3_s-109" value="&lt;h2&gt;VM&lt;/h2&gt;" style="text;html=1;align=center;verticalAlign=middle;resizable=0;points=[];autosize=1;strokeColor=none;fillColor=none;" vertex="1" parent="1">
          <mxGeometry x="864" y="161" width="50" height="60" as="geometry" />
        </mxCell>
        <mxCell id="j7N0jPnnDhKD8VTJG3_s-110" value="" style="shape=image;verticalLabelPosition=bottom;labelBackgroundColor=default;verticalAlign=top;aspect=fixed;imageAspect=0;editableCssRules=.*;image=data:image/svg+xml,PHN2ZyB4bWxucz0iaHR0cDovL3d3dy53My5vcmcvMjAwMC9zdmciIHZpZXdCb3g9Ii0wLjExOTk5OTk5NzMxNzc5MDk5IDAuMjA5OTk5OTkzNDQzNDg5MDcgMTggMTYuNjMwMDAxMDY4MTE1MjM0IiBoZWlnaHQ9IjE2LjYzMDAwMTA2ODExNTIzNCIgd2lkdGg9IjE4IiBpZD0iZmQ0NTRmMWMtNTUwNi00NGI4LTg3NGUtODgxNGI4YjJmNzBiIj48ZGVmcz48bGluZWFyR3JhZGllbnQgZ3JhZGllbnRVbml0cz0idXNlclNwYWNlT25Vc2UiIHkyPSIwLjIxIiB4Mj0iOC44OCIgeTE9IjEyLjIxIiB4MT0iOC44OCIgaWQ9ImYzNGQ5NTY5LTJiZDAtNDAwMi04ZjE2LTNkMDFkODEwNmNiNSI+PHN0b3Agc3RvcC1jb2xvcj0iIzAwNzhkNCIgb2Zmc2V0PSIwIi8+PHN0b3Agc3RvcC1jb2xvcj0iIzVlYTBlZiIgb2Zmc2V0PSIwLjgyIi8+PC9saW5lYXJHcmFkaWVudD48bGluZWFyR3JhZGllbnQgZ3JhZGllbnRVbml0cz0idXNlclNwYWNlT25Vc2UiIHkyPSIxMi4yMSIgeDI9IjguODgiIHkxPSIxNi44NCIgeDE9IjguODgiIGlkPSJiZGI0NWEwYi1lYjU4LTQ5NzAtYTYwYS1mYjJjZTMxNGY4NjYiPjxzdG9wIHN0b3AtY29sb3I9IiNjY2MiIG9mZnNldD0iMC4xNSIvPjxzdG9wIHN0b3AtY29sb3I9IiM3MDcwNzAiIG9mZnNldD0iMSIvPjwvbGluZWFyR3JhZGllbnQ+PC9kZWZzPjx0aXRsZT5JY29uLWNvbXB1dGUtMjE8L3RpdGxlPjxyZWN0IGZpbGw9InVybCgjZjM0ZDk1NjktMmJkMC00MDAyLThmMTYtM2QwMWQ4MTA2Y2I1KSIgcng9IjAuNiIgaGVpZ2h0PSIxMiIgd2lkdGg9IjE4IiB5PSIwLjIxIiB4PSItMC4xMiIvPjxwb2x5Z29uIGZpbGw9IiM1MGU2ZmYiIHBvaW50cz0iMTEuODggNC40NiAxMS44OCA3Ljk1IDguODggOS43MSA4Ljg4IDYuMjEgMTEuODggNC40NiIvPjxwb2x5Z29uIGZpbGw9IiNjM2YxZmYiIHBvaW50cz0iMTEuODggNC40NiA4Ljg4IDYuMjIgNS44OCA0LjQ2IDguODggMi43MSAxMS44OCA0LjQ2Ii8+PHBvbHlnb24gZmlsbD0iIzljZWJmZiIgcG9pbnRzPSI4Ljg4IDYuMjIgOC44OCA5LjcxIDUuODggNy45NSA1Ljg4IDQuNDYgOC44OCA2LjIyIi8+PHBvbHlnb24gZmlsbD0iI2MzZjFmZiIgcG9pbnRzPSI1Ljg4IDcuOTUgOC44OCA2LjIxIDguODggOS43MSA1Ljg4IDcuOTUiLz48cG9seWdvbiBmaWxsPSIjOWNlYmZmIiBwb2ludHM9IjExLjg4IDcuOTUgOC44OCA2LjIxIDguODggOS43MSAxMS44OCA3Ljk1Ii8+PHBhdGggZmlsbD0idXJsKCNiZGI0NWEwYi1lYjU4LTQ5NzAtYTYwYS1mYjJjZTMxNGY4NjYpIiBkPSJNMTIuNDksMTUuODRjLTEuNzgtLjI4LTEuODUtMS41Ni0xLjg1LTMuNjNINy4xMWMwLDIuMDctLjA2LDMuMzUtMS44NCwzLjYzYTEsMSwwLDAsMC0uODksMWg5QTEsMSwwLDAsMCwxMi40OSwxNS44NFoiLz48L3N2Zz4=;" vertex="1" parent="1">
          <mxGeometry x="846" y="430.52" width="90" height="85" as="geometry" />
        </mxCell>
        <mxCell id="j7N0jPnnDhKD8VTJG3_s-111" value="" style="shape=image;verticalLabelPosition=bottom;labelBackgroundColor=default;verticalAlign=top;aspect=fixed;imageAspect=0;editableCssRules=.*;image=data:image/svg+xml,PHN2ZyB4bWxucz0iaHR0cDovL3d3dy53My5vcmcvMjAwMC9zdmciIHZpZXdCb3g9IjAuNzkwMDAwMDIxNDU3NjcyMSAwLjg4OTk5OTk4NTY5NDg4NTMgMTYuOTk5OTk4MDkyNjUxMzY3IDE3IiBoZWlnaHQ9IjE3IiB3aWR0aD0iMTYuOTk5OTk4MDkyNjUxMzY3IiBpZD0iYTIxNTdmODgtZjY0MS00ZjdkLWFiYzctZjQwY2NmNWNmNjlhIj48ZGVmcz48bGluZWFyR3JhZGllbnQgZ3JhZGllbnRVbml0cz0idXNlclNwYWNlT25Vc2UiIHkyPSI4LjUyIiB4Mj0iMTIuNzQiIHkxPSIxNS4yOCIgeDE9IjEyLjc0IiBpZD0iYjgxNmM4ZWEtMDVhMi00MWZiLWJhOTktOTZkODQ1OTljOWY0Ij48c3RvcCBzdG9wLWNvbG9yPSIjMDA3OGQ0IiBvZmZzZXQ9IjAiLz48c3RvcCBzdG9wLWNvbG9yPSIjNWVhMGVmIiBvZmZzZXQ9IjAuODIiLz48L2xpbmVhckdyYWRpZW50PjxsaW5lYXJHcmFkaWVudCBncmFkaWVudFVuaXRzPSJ1c2VyU3BhY2VPblVzZSIgeTI9IjE1LjI4IiB4Mj0iMTIuNzQiIHkxPSIxNy44OSIgeDE9IjEyLjc0IiBpZD0iYWIzNzNkODgtNDFhZi00ZmMzLWIxNzItZDQ0ODlmOTEwN2EwIj48c3RvcCBzdG9wLWNvbG9yPSIjY2NjIiBvZmZzZXQ9IjAuMTUiLz48c3RvcCBzdG9wLWNvbG9yPSIjNzA3MDcwIiBvZmZzZXQ9IjEiLz48L2xpbmVhckdyYWRpZW50PjwvZGVmcz48dGl0bGU+SWNvbi1jb21wdXRlLTM0PC90aXRsZT48cmVjdCBmaWxsPSIjMDA1YmExIiByeD0iMC4zNCIgaGVpZ2h0PSI2Ljc1IiB3aWR0aD0iMTAuMTEiIHk9IjAuODkiIHg9IjAuNzkiLz48cG9seWdvbiBmaWxsPSIjNTBlNmZmIiBwb2ludHM9IjcuNTMgMy4yOCA3LjUzIDUuMjUgNS44NSA2LjIzIDUuODUgNC4yNyA3LjUzIDMuMjgiLz48cG9seWdvbiBmaWxsPSIjYzNmMWZmIiBwb2ludHM9IjcuNTMgMy4yOCA1Ljg1IDQuMjcgNC4xNiAzLjI4IDUuODUgMi4yOSA3LjUzIDMuMjgiLz48cG9seWdvbiBmaWxsPSIjOWNlYmZmIiBwb2ludHM9IjUuODUgNC4yNyA1Ljg1IDYuMjMgNC4xNiA1LjI1IDQuMTYgMy4yOCA1Ljg1IDQuMjciLz48cmVjdCBmaWxsPSIjMDA3OGQ0IiByeD0iMC4zNCIgaGVpZ2h0PSI2Ljc1IiB3aWR0aD0iMTAuMTEiIHk9IjQuNzYiIHg9IjQuNzYiLz48cG9seWdvbiBmaWxsPSIjNTBlNmZmIiBwb2ludHM9IjExLjUgNy4xNiAxMS41IDkuMTIgOS44MiAxMC4xMSA5LjgyIDguMTQgMTEuNSA3LjE2Ii8+PHBvbHlnb24gZmlsbD0iI2MzZjFmZiIgcG9pbnRzPSIxMS41IDcuMTYgOS44MiA4LjE0IDguMTMgNy4xNiA5LjgyIDYuMTcgMTEuNSA3LjE2Ii8+PHBvbHlnb24gZmlsbD0iIzljZWJmZiIgcG9pbnRzPSI5LjgyIDguMTQgOS44MiAxMC4xMSA4LjEzIDkuMTIgOC4xMyA3LjE2IDkuODIgOC4xNCIvPjxyZWN0IGZpbGw9InVybCgjYjgxNmM4ZWEtMDVhMi00MWZiLWJhOTktOTZkODQ1OTljOWY0KSIgcng9IjAuMzQiIGhlaWdodD0iNi43NSIgd2lkdGg9IjEwLjExIiB5PSI4LjUyIiB4PSI3LjY4Ii8+PHBvbHlnb24gZmlsbD0iIzUwZTZmZiIgcG9pbnRzPSIxNC40MiAxMC45MiAxNC40MiAxMi44OCAxMi43NCAxMy44NyAxMi43NCAxMS45IDE0LjQyIDEwLjkyIi8+PHBvbHlnb24gZmlsbD0iI2MzZjFmZiIgcG9pbnRzPSIxNC40MiAxMC45MiAxMi43NCAxMS45MSAxMS4wNSAxMC45MiAxMi43NCA5LjkzIDE0LjQyIDEwLjkyIi8+PHBvbHlnb24gZmlsbD0iIzljZWJmZiIgcG9pbnRzPSIxMi43NCAxMS45MSAxMi43NCAxMy44NyAxMS4wNSAxMi44OCAxMS4wNSAxMC45MiAxMi43NCAxMS45MSIvPjxwb2x5Z29uIGZpbGw9IiNjM2YxZmYiIHBvaW50cz0iMTEuMDUgMTIuODggMTIuNzQgMTEuOSAxMi43NCAxMy44NyAxMS4wNSAxMi44OCIvPjxwb2x5Z29uIGZpbGw9IiM5Y2ViZmYiIHBvaW50cz0iMTQuNDIgMTIuODggMTIuNzQgMTEuOSAxMi43NCAxMy44NyAxNC40MiAxMi44OCIvPjxwYXRoIGZpbGw9InVybCgjYWIzNzNkODgtNDFhZi00ZmMzLWIxNzItZDQ0ODlmOTEwN2EwKSIgZD0iTTE0Ljc2LDE3LjMyYy0xLS4xNi0xLS44OC0xLTJoLTJjMCwxLjE2LDAsMS44OC0xLDJhLjU5LjU5LDAsMCwwLS41LjU3aDVBLjU5LjU5LDAsMCwwLDE0Ljc2LDE3LjMyWiIvPjwvc3ZnPg==;" vertex="1" parent="1">
          <mxGeometry x="646" y="433.47" width="90" height="90" as="geometry" />
        </mxCell>
        <mxCell id="j7N0jPnnDhKD8VTJG3_s-112" value="" style="endArrow=classic;html=1;rounded=0;strokeWidth=3;entryX=0;entryY=0.5;entryDx=0;entryDy=0;" edge="1" parent="1">
          <mxGeometry width="50" height="50" relative="1" as="geometry">
            <mxPoint x="743" y="478.47" as="sourcePoint" />
            <mxPoint x="838" y="477.97" as="targetPoint" />
            <Array as="points" />
          </mxGeometry>
        </mxCell>
        <mxCell id="j7N0jPnnDhKD8VTJG3_s-113" value="" style="endArrow=classic;html=1;rounded=0;strokeWidth=3;" edge="1" parent="1">
          <mxGeometry width="50" height="50" relative="1" as="geometry">
            <mxPoint x="543" y="478.47" as="sourcePoint" />
            <mxPoint x="600" y="478" as="targetPoint" />
            <Array as="points" />
          </mxGeometry>
        </mxCell>
        <mxCell id="j7N0jPnnDhKD8VTJG3_s-114" value="&lt;h2&gt;Servicio PaaS&lt;/h2&gt;" style="text;html=1;align=center;verticalAlign=middle;resizable=0;points=[];autosize=1;strokeColor=none;fillColor=none;" vertex="1" parent="1">
          <mxGeometry x="418" y="286" width="140" height="60" as="geometry" />
        </mxCell>
        <mxCell id="j7N0jPnnDhKD8VTJG3_s-115" value="&lt;h2&gt;Incorporado en App Service&lt;/h2&gt;" style="text;html=1;align=center;verticalAlign=middle;resizable=0;points=[];autosize=1;strokeColor=none;fillColor=none;" vertex="1" parent="1">
          <mxGeometry x="650" y="286.00000000000006" width="260" height="60" as="geometry" />
        </mxCell>
        <mxCell id="j7N0jPnnDhKD8VTJG3_s-116" value="&lt;h2&gt;Azure &lt;br&gt;App Service&lt;br&gt;&lt;/h2&gt;" style="text;html=1;align=center;verticalAlign=middle;resizable=0;points=[];autosize=1;strokeColor=none;fillColor=none;" vertex="1" parent="1">
          <mxGeometry x="425" y="364.95000000000005" width="130" height="90" as="geometry" />
        </mxCell>
        <mxCell id="j7N0jPnnDhKD8VTJG3_s-117" value="&lt;h2&gt;Servicio PaaS&lt;/h2&gt;" style="text;html=1;align=center;verticalAlign=middle;resizable=0;points=[];autosize=1;strokeColor=none;fillColor=none;" vertex="1" parent="1">
          <mxGeometry x="418" y="506" width="140" height="60" as="geometry" />
        </mxCell>
        <mxCell id="j7N0jPnnDhKD8VTJG3_s-118" value="&lt;h2&gt;Auto Scale&lt;/h2&gt;" style="text;html=1;align=center;verticalAlign=middle;resizable=0;points=[];autosize=1;strokeColor=none;fillColor=none;" vertex="1" parent="1">
          <mxGeometry x="626" y="387.95000000000005" width="120" height="60" as="geometry" />
        </mxCell>
        <mxCell id="j7N0jPnnDhKD8VTJG3_s-119" value="&lt;h2&gt;VM&lt;/h2&gt;" style="text;html=1;align=center;verticalAlign=middle;resizable=0;points=[];autosize=1;strokeColor=none;fillColor=none;" vertex="1" parent="1">
          <mxGeometry x="864" y="386" width="50" height="60" as="geometry" />
        </mxCell>
        <mxCell id="j7N0jPnnDhKD8VTJG3_s-120" value="&lt;h2&gt;Incorporado en App Service&lt;/h2&gt;" style="text;html=1;align=center;verticalAlign=middle;resizable=0;points=[];autosize=1;strokeColor=none;fillColor=none;" vertex="1" parent="1">
          <mxGeometry x="650" y="507.00000000000006" width="260" height="60" as="geometry" />
        </mxCell>
      </root>
    </mxGraphModel>
  </diagram>
</mxfile>
